<svg xmlns="http://www.w3.org/2000/svg"  viewBox="0 0 48 48" width="100px" height="100px" baseProfile="basic"><path fill="#babffc" d="M1.152,26.329C0.423,25.76-0.002,24.885,0,23.959s0.432-1.799,1.164-2.365l9-6.966	c1.309-1.013,3.194-0.774,4.208,0.536c1.015,1.31,0.774,3.194-0.536,4.208l-5.949,4.605l5.961,4.659	c1.306,1.02,1.536,2.905,0.516,4.211C13,35,1.152,26.329,1.152,26.329z"/><path fill="#324561" d="M11.998,34c-0.674,0-1.312-0.22-1.846-0.637l-9-7.034c-0.435-0.341-0.512-0.969-0.172-1.404	c0.339-0.434,0.966-0.513,1.404-0.172l8.999,7.034c0.427,0.335,1.073,0.251,1.403-0.171c0.337-0.436,0.967-0.514,1.403-0.173	c0.436,0.339,0.513,0.968,0.173,1.403C13.792,33.579,12.93,34,11.998,34z"/><path fill="#324561" d="M7.527,23.992c-0.299,0-0.595-0.133-0.792-0.388c-0.338-0.437-0.258-1.065,0.179-1.403l6.382-4.94	c0.438-0.337,1.065-0.259,1.403,0.179c0.338,0.437,0.258,1.065-0.179,1.403l-6.382,4.94C7.956,23.924,7.741,23.992,7.527,23.992z"/><path fill="#babffc" d="M33.637,32.848c-1.021-1.306-0.79-3.191,0.516-4.211l5.961-4.659l-5.949-4.605	c-1.311-1.014-1.551-2.898-0.536-4.208c1.014-1.31,2.899-1.549,4.208-0.536l9,6.966c0.732,0.566,1.162,1.439,1.164,2.365	s-0.423,1.801-1.152,2.37C46.848,26.329,38,33,33.637,32.848z"/><path fill="#324561" d="M40.499,24.012c-0.214,0-0.429-0.068-0.611-0.209l-5.724-4.431c-0.437-0.338-0.517-0.967-0.179-1.403	c0.339-0.436,0.967-0.515,1.403-0.179l5.724,4.431c0.437,0.338,0.517,0.967,0.179,1.403C41.094,23.878,40.798,24.012,40.499,24.012z"/><path fill="#324561" d="M36.002,34c-0.931,0-1.793-0.42-2.365-1.151c-0.34-0.436-0.263-1.064,0.172-1.404	c0.438-0.341,1.063-0.263,1.404,0.172c0.329,0.422,0.976,0.506,1.402,0.172l9.001-7.035c0.438-0.341,1.064-0.262,1.404,0.172	c0.34,0.436,0.263,1.064-0.172,1.404l-9.001,7.034C37.315,33.779,36.677,34,36.002,34z"/><path fill="#babffc" d="M20.002,42.001c-0.273,0-0.551-0.038-0.826-0.116c-1.593-0.455-2.516-2.116-2.061-3.709l8-28	c0.456-1.594,2.117-2.512,3.709-2.061c1.593,0.455,2.516,2.116,2.061,3.709C30.885,11.824,22,42.001,20.002,42.001z"/><path fill="#324561" d="M20.002,42.001c-0.275,0-0.553-0.039-0.825-0.115c-0.531-0.15-0.841-0.703-0.691-1.234	c0.151-0.53,0.703-0.84,1.234-0.691c0.558,0.159,1.095-0.169,1.241-0.685l8-28c0.152-0.532,0.707-0.834,1.236-0.688	c0.531,0.152,0.839,0.706,0.688,1.236l-8,28C22.519,41.106,21.333,42.001,20.002,42.001z"/></svg>