<svg xmlns="http://www.w3.org/2000/svg"  viewBox="0 0 48 48" width="100px" height="100px" baseProfile="basic"><path fill="#12d9e3" d="M44,15v17.76c-1.37-1.1-3.11-1.76-5-1.76c-4.42,0-8,3.58-8,8c0,0.69,0.09,1.36,0.25,2H9	c-2.76,0-5-2.24-5-5V15c0-0.27,0.11-0.52,0.29-0.71C4.48,14.11,4.74,14,5,14h38C43.55,14,44,14.45,44,15z"/><path fill="#324561" d="M43,16c-0.553,0-1-0.447-1-1v-3c0-1.654-1.346-3-3-3H9c-1.654,0-3,1.346-3,3v3c0,0.553-0.447,1-1,1	s-1-0.447-1-1v-3c0-2.757,2.243-5,5-5h30c2.757,0,5,2.243,5,5v3C44,15.553,43.553,16,43,16z"/><path fill="#324561" d="M34,29H19c-0.553,0-1-0.447-1-1s0.447-1,1-1h15c0.553,0,1,0.447,1,1S34.553,29,34,29z"/><circle cx="14" cy="28" r="1.5" fill="#324561"/><path fill="#324561" d="M27,36h-8c-0.553,0-1-0.447-1-1s0.447-1,1-1h8c0.553,0,1,0.447,1,1S27.553,36,27,36z"/><circle cx="14" cy="35" r="1.5" fill="#324561"/><path fill="#324561" d="M34,22H19c-0.553,0-1-0.447-1-1s0.447-1,1-1h15c0.553,0,1,0.447,1,1S34.553,22,34,22z"/><circle cx="14" cy="21" r="1.5" fill="#324561"/><path fill="#324561" d="M39,48c-4.963,0-9-4.037-9-9s4.037-9,9-9s9,4.037,9,9S43.963,48,39,48z M39,32c-3.859,0-7,3.141-7,7	s3.141,7,7,7s7-3.141,7-7S42.859,32,39,32z"/><path fill="#324561" d="M41,42c-0.256,0-0.512-0.098-0.707-0.293l-2-2c-0.391-0.391-0.391-1.023,0-1.414s1.023-0.391,1.414,0	l2,2c0.391,0.391,0.391,1.023,0,1.414C41.512,41.902,41.256,42,41,42z"/><path fill="#324561" d="M39,40c-0.553,0-1-0.447-1-1v-4c0-0.553,0.447-1,1-1s1,0.447,1,1v4C40,39.553,39.553,40,39,40z"/></svg>