<svg xmlns="http://www.w3.org/2000/svg"  viewBox="0 0 48 48" width="100px" height="100px" baseProfile="basic"><path fill="#f2ca00" d="M26.852,35.012c0.443,0.188,0.911,0.282,1.379,0.282c0.45,0,0.899-0.087,1.329-0.261	c0.876-0.354,1.561-1.03,1.93-1.9c0.761-1.796-0.082-3.877-1.879-4.638c-0.869-0.369-1.831-0.376-2.708-0.021	c-0.876,0.355-1.562,1.03-1.93,1.9c-0.368,0.871-0.376,1.833-0.021,2.708C25.307,33.958,25.981,34.644,26.852,35.012z"/><path fill="#f2ca00" d="M12.154,21.446c-3.351,0-6.077,2.726-6.077,6.077c0,3.351,2.727,6.077,6.077,6.077	s6.076-2.726,6.076-6.077C18.23,24.172,15.505,21.446,12.154,21.446z"/><path fill="#f2ca00" d="M28.23,36.677c-1.951,0-3.538,1.587-3.538,3.539s1.587,3.539,3.538,3.539s3.539-1.587,3.539-3.539	S30.182,36.677,28.23,36.677z"/><path fill="#f2ca00" d="M43.462,28.215c-1.951,0-3.539,1.587-3.539,3.539s1.588,3.539,3.539,3.539S47,33.705,47,31.754	S45.413,28.215,43.462,28.215z"/><path fill="#f2ca00" d="M45.588,33.515L43.273,29c-0.237-0.465-0.792-0.665-1.274-0.467l-11.43,4.76h-1.168l0.602-3.797	c0.071-0.45-0.17-0.891-0.588-1.073l-14.709-6.416c-0.117-0.051-0.243-0.08-0.371-0.083l-4.036-0.115	c-0.129-0.009-0.253,0.017-0.371,0.06l-6.751,2.467C1.875,24.812,1,26.063,1,27.45v10.153c0,0.73,0.364,1.405,0.975,1.805	c0.612,0.401,1.376,0.466,2.043,0.174l5.524-2.399c0.591-0.257,1.273-0.264,1.872-0.021l15.337,6.267	c0.12,0.049,0.248,0.074,0.378,0.074c0.01,0,0.02,0,0.029,0c2.55-0.074,2.55-0.074,2.818-0.21l15.207-8.448	C45.655,34.583,45.834,33.995,45.588,33.515z"/><path fill="#324561" d="M28.23,37.61c-0.783,0-1.551-0.156-2.282-0.463c-0.686-0.292-3.854-1.54-8.478-3.341	c-0.515-0.2-0.769-0.78-0.568-1.294c0.201-0.515,0.78-0.77,1.295-0.569c4.71,1.835,7.819,3.061,8.529,3.362	c0.946,0.397,2.008,0.405,2.951,0.022c0.474-0.192,0.895-0.466,1.252-0.817c0.393-0.387,1.027-0.381,1.414,0.014	c0.387,0.395,0.381,1.028-0.014,1.414c-0.546,0.535-1.186,0.953-1.901,1.243C29.728,37.465,28.987,37.61,28.23,37.61z"/><path fill="#324561" d="M33,25c-0.389,0-0.775-0.128-1.087-0.361c-0.994-0.74-9.731-7.396-9.731-12.912	C22.182,8.018,25.199,5,28.909,5c1.752,0,3.12,0.705,4.091,1.472C33.971,5.705,35.339,5,37.091,5c3.71,0,6.728,3.018,6.728,6.727	c0,5.493-8.736,12.17-9.732,12.913C33.771,24.873,33.387,25,33,25z M33.108,23.036h0.01H33.108z M28.909,7	c-2.606,0-4.728,2.121-4.728,4.727c0,3.652,5.705,8.89,8.818,11.228c3.111-2.343,8.818-7.592,8.818-11.228	C41.818,9.121,39.697,7,37.091,7c-1.546,0-2.692,0.825-3.383,1.516c-0.375,0.377-1.041,0.377-1.416,0	C31.602,7.825,30.455,7,28.909,7z"/></svg>