<svg xmlns="http://www.w3.org/2000/svg"  viewBox="0 0 48 48" width="100px" height="100px" baseProfile="basic"><path fill="#f2ca00" d="M32.05,20.99v22c0,0.55-0.44,1-1,1H17.18c-4.16,0-7.91-2.3-9.8-6l-2.02-3.96	C4.41,32.17,4.34,30,5.17,28.07l0.62-1.45c1.06-2.44,2.55-4.63,4.43-6.51l6.27-6.27c0.14-0.14,0.31-0.23,0.49-0.26	c-0.87,1.26-1.45,2.71-1.67,4.24l-1.26,8.54c-0.06,0.44,0.16,0.87,0.56,1.05c1.81,0.81,3.97,0.21,5.11-1.41	c1.02-1.43,2.16-3.5,3.13-5.99l8.2-0.02c0.27,0,0.52,0.1,0.71,0.29S32.05,20.72,32.05,20.99z"/><path fill="#f2ca00" d="M38.298,19.989H28.055c-0.553,0-1,0.447-1,1v4c0,0.553,0.447,1,1,1h10.243c1.654,0,3-1.346,3-3	S39.952,19.989,38.298,19.989z"/><path fill="#f2ca00" d="M36.884,25.989H22.055c-0.553,0-1,0.447-1,1v4c0,0.553,0.447,1,1,1h14.829c1.654,0,3-1.346,3-3	S38.538,25.989,36.884,25.989z"/><path fill="#f2ca00" d="M35.47,31.989H18.055c-0.553,0-1,0.447-1,1v4c0,0.553,0.447,1,1,1H35.47c1.654,0,3-1.346,3-3	S37.124,31.989,35.47,31.989z"/><path fill="#f2ca00" d="M33.055,37.989h-14c-0.553,0-1,0.447-1,1v4c0,0.553,0.447,1,1,1h14c1.654,0,3-1.346,3-3	S34.709,37.989,33.055,37.989z"/><path fill="#324561" d="M36.884,27.989h-5.829c-0.553,0-1-0.447-1-1s0.447-1,1-1h5.829c0.553,0,1,0.447,1,1	S37.437,27.989,36.884,27.989z"/><path fill="#324561" d="M33.055,39.989h-2c-0.553,0-1-0.447-1-1s0.447-1,1-1h2c0.553,0,1,0.447,1,1	S33.607,39.989,33.055,39.989z"/><path fill="#324561" d="M35.47,33.989h-4.415c-0.553,0-1-0.447-1-1s0.447-1,1-1h4.415c0.553,0,1,0.447,1,1	S36.022,33.989,35.47,33.989z"/><path fill="#324561" d="M16.295,28.771c-0.703,0-1.414-0.144-2.088-0.442c-0.813-0.375-1.277-1.246-1.141-2.124l1.251-8.528	c0.34-2.324,1.443-4.521,3.105-6.183l3.071-3.071c1.154-1.154,2.444-2.174,3.834-3.03l2.786-1.717	c1.917-1.181,4.302-1.367,6.38-0.494l4.848,2.034c2.337,0.979,3.812,3.339,3.669,5.87l-0.544,9.649	c-0.03,0.552-0.519,0.975-1.055,0.941c-0.551-0.03-0.973-0.503-0.941-1.055l0.544-9.649c0.095-1.688-0.888-3.26-2.446-3.913	l-4.848-2.034c-1.482-0.621-3.188-0.49-4.558,0.354l-2.786,1.717c-1.257,0.774-2.424,1.696-3.469,2.741l-3.071,3.071	c-1.36,1.36-2.263,3.157-2.541,5.059l-1.252,8.537c1.352,0.607,2.985,0.157,3.855-1.082c1.177-1.659,1.953-3.313,2.682-5.713	c0.16-0.527,0.712-0.827,1.248-0.666c0.528,0.161,0.826,0.72,0.666,1.248c-0.785,2.585-1.671,4.465-2.962,6.284	C19.542,27.986,17.939,28.771,16.295,28.771z"/></svg>