<svg xmlns="http://www.w3.org/2000/svg"  viewBox="0 0 48 48" width="100px" height="100px" baseProfile="basic"><path fill="#12d9e3" d="M47.835,32.78l-0.314-0.97c-1.296-3.966-4.966-6.63-9.133-6.63c-1.803,0-3.563,0.506-5.093,1.463	c-0.488,0.305-0.649,0.939-0.365,1.44c0.295,0.524,0.569,1.088,0.811,1.675h0.001c0.025,0.061,0.055,0.119,0.089,0.175H33.83	c0.503,0.819,0.92,1.719,1.236,2.665l0.455,1.419c0.177,0.531,0.202,1.105,0.07,1.66c-0.074,0.32,0,0.655,0.203,0.914	C35.997,36.85,36.308,37,36.637,37h8.134c1.034,0,2.013-0.501,2.618-1.34C48,34.812,48.161,33.759,47.835,32.78z"/><path fill="#324561" d="M39,24c-2.757,0-5-2.243-5-5s2.243-5,5-5s5,2.243,5,5S41.757,24,39,24z M39,16c-1.654,0-3,1.346-3,3	s1.346,3,3,3s3-1.346,3-3S40.654,16,39,16z"/><path fill="#324561" d="M38.959,38c-0.087,0-0.175-0.011-0.263-0.035c-0.533-0.145-0.848-0.694-0.703-1.227	c0.222-0.817,0.196-1.686-0.073-2.513l-0.48-1.476c-0.367-1.126-0.873-2.202-1.502-3.196c-0.296-0.467-0.157-1.085,0.31-1.38	c0.469-0.297,1.085-0.157,1.38,0.31c0.719,1.136,1.296,2.362,1.715,3.646l0.48,1.477c0.39,1.198,0.425,2.462,0.101,3.655	C39.802,37.707,39.398,38,38.959,38z"/><path fill="#12d9e3" d="M0.612,35.66C1.217,36.499,2.196,37,3.229,37h8.134c0.329,0,0.639-0.15,0.843-0.407	c0.203-0.259,0.277-0.594,0.203-0.914c-0.132-0.556-0.107-1.129,0.07-1.66l0.455-1.419c0.316-0.946,0.733-1.846,1.236-2.665h-0.001	c0.034-0.056,0.064-0.114,0.089-0.175h0.001c0.242-0.587,0.516-1.151,0.811-1.675c0.284-0.501,0.122-1.135-0.365-1.44	c-1.53-0.957-3.29-1.463-5.093-1.463c-4.167,0-7.837,2.664-9.133,6.63l-0.314,0.97C-0.161,33.759,0,34.812,0.612,35.66z"/><path fill="#324561" d="M4,19c0-2.757,2.243-5,5-5s5,2.243,5,5s-2.243,5-5,5S4,21.757,4,19z M6,19c0,1.654,1.346,3,3,3	s3-1.346,3-3s-1.346-3-3-3S6,17.346,6,19z"/><path fill="#12d9e3" d="M37.92,34.226l-0.481-1.476C35.537,26.919,30.136,23,24,23s-11.537,3.919-13.44,9.752l-0.479,1.473	c-0.444,1.358-0.216,2.801,0.622,3.957C11.542,39.338,12.842,40,14.27,40H33.73c1.429,0,2.728-0.663,3.567-1.818	C38.137,37.026,38.364,35.584,37.92,34.226z"/><path fill="#324561" d="M24,28c-0.256,0-0.512-0.098-0.707-0.293l-3-3c-0.391-0.391-0.391-1.023,0-1.414s1.023-0.391,1.414,0	L24,25.586l2.293-2.293c0.391-0.391,1.023-0.391,1.414,0s0.391,1.023,0,1.414l-3,3C24.512,27.902,24.256,28,24,28z"/><path fill="#324561" d="M24,41c-0.314,0-0.611-0.148-0.8-0.4l-3-4c-0.197-0.262-0.253-0.604-0.148-0.916l3-9	C23.188,26.275,23.569,26,24,26s0.812,0.275,0.948,0.684l3,9c0.104,0.312,0.049,0.654-0.148,0.916l-3,4	C24.611,40.852,24.314,41,24,41z M22.114,35.819L24,38.333l1.886-2.514L24,30.162L22.114,35.819z"/><path fill="#324561" d="M24,21c-3.859,0-7-3.141-7-7s3.141-7,7-7s7,3.141,7,7S27.859,21,24,21z M24,9c-2.757,0-5,2.243-5,5	s2.243,5,5,5s5-2.243,5-5S26.757,9,24,9z"/><path fill="#324561" d="M9.041,38c-0.439,0-0.843-0.293-0.964-0.738c-0.324-1.193-0.289-2.457,0.101-3.655l0.48-1.476	c0.419-1.285,0.996-2.512,1.715-3.647c0.295-0.468,0.911-0.607,1.38-0.31c0.467,0.295,0.605,0.913,0.31,1.38	c-0.629,0.994-1.135,2.07-1.502,3.197l-0.48,1.475c-0.27,0.827-0.295,1.695-0.073,2.513c0.145,0.532-0.17,1.082-0.703,1.227	C9.217,37.989,9.128,38,9.041,38z"/></svg>