<svg xmlns="http://www.w3.org/2000/svg"  viewBox="0 0 48 48" width="100px" height="100px" baseProfile="basic"><path fill="#babffc" d="M42,13v18.08C40.83,30.39,39.46,30,38,30c-4.42,0-8,3.58-8,8c0,1.06,0.21,2.07,0.58,3H9	c-2.76,0-5-2.24-5-5V13c0-2.76,2.24-5,5-5h28C39.76,8,42,10.24,42,13z"/><path fill="#324561" d="M15,26h-4c-0.553,0-1-0.448-1-1s0.447-1,1-1h3v-2c0-0.552,0.447-1,1-1s1,0.448,1,1v3	C16,25.552,15.553,26,15,26z"/><path fill="#324561" d="M25,26h-4c-0.553,0-1-0.448-1-1s0.447-1,1-1h3v-2c0-0.552,0.447-1,1-1s1,0.448,1,1v3	C26,25.552,25.553,26,25,26z"/><path fill="#324561" d="M35,26h-4c-0.553,0-1-0.448-1-1s0.447-1,1-1h3v-2c0-0.552,0.447-1,1-1s1,0.448,1,1v3	C36,25.552,35.553,26,35,26z"/><path fill="#324561" d="M15,35h-4c-0.553,0-1-0.448-1-1s0.447-1,1-1h3v-2c0-0.552,0.447-1,1-1s1,0.448,1,1v3	C16,34.552,15.553,35,15,35z"/><path fill="#324561" d="M25,35h-4c-0.553,0-1-0.448-1-1s0.447-1,1-1h3v-2c0-0.552,0.447-1,1-1s1,0.448,1,1v3	C26,34.552,25.553,35,25,35z"/><path fill="#324561" d="M15,10c-0.553,0-1-0.448-1-1V5h-3v4c0,0.552-0.447,1-1,1S9,9.552,9,9V5c0-1.103,0.897-2,2-2h3	c1.103,0,2,0.897,2,2v4C16,9.552,15.553,10,15,10z"/><path fill="#324561" d="M36,10c-0.553,0-1-0.448-1-1V5h-3v4c0,0.552-0.447,1-1,1s-1-0.448-1-1V5c0-1.103,0.897-2,2-2h3	c1.103,0,2,0.897,2,2v4C37,9.552,36.553,10,36,10z"/><path fill="#324561" d="M38,47c-4.963,0-9-4.037-9-9s4.037-9,9-9s9,4.037,9,9S42.963,47,38,47z M38,31c-3.859,0-7,3.141-7,7	s3.141,7,7,7s7-3.141,7-7S41.859,31,38,31z"/><path fill="#324561" d="M40,41c-0.256,0-0.512-0.098-0.707-0.293l-2-2c-0.391-0.391-0.391-1.023,0-1.414s1.023-0.391,1.414,0	l2,2c0.391,0.391,0.391,1.023,0,1.414C40.512,40.902,40.256,41,40,41z"/><path fill="#324561" d="M38,39c-0.553,0-1-0.447-1-1v-4c0-0.553,0.447-1,1-1s1,0.447,1,1v4C39,38.553,38.553,39,38,39z"/></svg>