<svg xmlns="http://www.w3.org/2000/svg"  viewBox="0 0 48 48" width="100px" height="100px" baseProfile="basic"><path fill="#f2ca00" d="M39.193,22.858c-5.752-1.136-8.24-7.169-8.265-7.23c-0.118-0.293-0.368-0.514-0.675-0.595	c-0.305-0.078-0.632-0.011-0.879,0.187c-8.092,6.478-17.69,7.563-20.439,7.742c-0.013,0.001-0.023,0.009-0.036,0.01	c-0.068-0.147-0.164-0.282-0.299-0.384c-0.313-0.235-0.736-0.267-1.08-0.081C5.966,23.353,5,25.074,5,27	c0,2.695,1.933,4.885,4.338,4.982C11.81,39.046,17.448,44,24,44c8.822,0,16-8.972,16-20v-0.16	C40,23.362,39.662,22.951,39.193,22.858z"/><path fill="#324561" d="M40,25c-0.553,0-1-0.447-1-1v-1c0-13.445-4.565-15-8-15c-0.266,0-0.52-0.105-0.707-0.293	C30.268,7.683,27.495,5,23,5C10.818,5,9,16.277,9,23v1c0,0.553-0.447,1-1,1s-1-0.447-1-1v-1C7,10.29,12.832,3,23,3	c4.469,0,7.451,2.201,8.393,3.007C41,6.338,41,18.851,41,23v1C41,24.553,40.553,25,40,25z"/><path fill="#324561" d="M42,30h-3V19h3c2.209,0,4,1.791,4,4v3C46,28.209,44.209,30,42,30z M41,28h1c1.103,0,2-0.897,2-2v-3	c0-1.103-0.897-2-2-2h-1V28z"/><path fill="#324561" d="M30.308,37H28c-0.553,0-1-0.447-1-1s0.447-1,1-1h2.308c4.212,0,7.906-2.987,8.595-6.947	C38.967,27.682,39,27.327,39,27c0-0.553,0.447-1,1-1s1,0.447,1,1c0,0.442-0.043,0.912-0.127,1.396	C40.006,33.381,35.562,37,30.308,37z"/><path fill="#324561" d="M25,40c-2.206,0-4-1.794-4-4s1.794-4,4-4s4,1.794,4,4S27.206,40,25,40z M25,34c-1.103,0-2,0.897-2,2	s0.897,2,2,2s2-0.897,2-2S26.103,34,25,34z"/></svg>