<svg xmlns="http://www.w3.org/2000/svg"  viewBox="0 0 48 48" width="100px" height="100px" baseProfile="basic"><path fill="#6be3a2" d="M43.016,8H19.984C18.891,8,18,8.897,18,10v2c0,1.103,0.891,2,1.984,2h23.031	C44.109,14,45,13.103,45,12v-2C45,8.897,44.109,8,43.016,8z"/><path fill="#6be3a2" d="M43.016,21H19.984C18.891,21,18,21.897,18,23v2c0,1.103,0.891,2,1.984,2h23.031	C44.109,27,45,26.103,45,25v-2C45,21.897,44.109,21,43.016,21z"/><path fill="#6be3a2" d="M43.016,34H19.984C18.891,34,18,34.897,18,36v2c0,1.103,0.891,2,1.984,2h23.031	C44.109,40,45,39.103,45,38v-2C45,34.897,44.109,34,43.016,34z"/><path fill="#324561" d="M7.999,15c-0.209,0-0.42-0.065-0.599-0.2l-4-3c-0.442-0.331-0.532-0.958-0.2-1.399	C3.531,9.958,4.158,9.869,4.6,10.2l3.24,2.43l4.392-5.271c0.354-0.424,0.983-0.48,1.409-0.128c0.424,0.354,0.481,0.984,0.128,1.409	l-5,6C8.571,14.877,8.286,15,7.999,15z"/><path fill="#324561" d="M7.999,28c-0.209,0-0.42-0.065-0.599-0.2l-4-3c-0.442-0.331-0.532-0.958-0.2-1.399	c0.331-0.442,0.958-0.531,1.399-0.2l3.24,2.43l4.392-5.271c0.354-0.424,0.983-0.481,1.409-0.128	c0.424,0.354,0.481,0.984,0.128,1.409l-5,6C8.571,27.877,8.286,28,7.999,28z"/><path fill="#324561" d="M8,41c-2.206,0-4-1.794-4-4s1.794-4,4-4s4,1.794,4,4S10.206,41,8,41z M8,35c-1.103,0-2,0.897-2,2	s0.897,2,2,2s2-0.897,2-2S9.103,35,8,35z"/></svg>