<svg fill="#000000" xmlns="http://www.w3.org/2000/svg"  viewBox="0 0 30 30" width="100px" height="100px"><path d="M 5.2734375 4 C 4.9479375 4 4.6215469 4.1245469 4.3730469 4.3730469 C 3.885683 4.8604107 3.879191 5.6437295 4.3476562 6.1425781 C 3.8651164 6.7230869 3.8893178 7.5846303 4.4335938 8.1289062 L 11.484375 15.179688 L 6.0117188 20.654297 L 7.0117188 20.988281 L 7.3457031 22.654297 L 9.0117188 22.988281 L 9.3457031 23.988281 L 22.695312 10.638672 L 19.361328 7.3046875 L 15.179688 11.484375 L 8.1289062 4.4335938 C 7.5846303 3.8893178 6.7230869 3.8651164 6.1425781 4.3476562 C 5.8980854 4.1180549 5.5863155 4 5.2734375 4 z M 23.21875 4.0019531 C 22.877625 4.0019531 22.535391 4.1320781 22.275391 4.3925781 L 20.695312 5.9726562 L 24.029297 9.3046875 L 25.609375 7.7246094 C 26.130375 7.2036094 26.130375 6.3598437 25.609375 5.8398438 L 24.160156 4.3925781 C 23.899656 4.1320781 23.559875 4.0019531 23.21875 4.0019531 z M 7 6 C 7.25575 6 7.5115313 6.0974688 7.7070312 6.2929688 L 9.7070312 8.2929688 C 10.098031 8.6839687 10.098031 9.3160312 9.7070312 9.7070312 C 9.5120312 9.9020312 9.256 10 9 10 C 8.744 10 8.4879688 9.9020312 8.2929688 9.7070312 L 6.2929688 7.7070312 C 5.9019687 7.3160312 5.9019688 6.6839687 6.2929688 6.2929688 C 6.4884688 6.0974687 6.74425 6 7 6 z M 19.960938 16.265625 L 16.263672 19.960938 L 20.003906 23.699219 C 20.370906 24.066219 20.828078 24.331797 21.330078 24.466797 L 23.126953 24.945312 L 23.382812 24.669922 L 25.072266 25.890625 C 25.271266 26.033625 25.547812 26.040672 25.757812 25.888672 C 26.019812 25.699672 26.079625 25.334266 25.890625 25.072266 L 24.632812 23.330078 L 24.914062 23.027344 L 24.466797 21.335938 C 24.331797 20.831937 24.065266 20.371906 23.697266 20.003906 L 19.960938 16.265625 z M 4.9042969 23.003906 L 4.0546875 25.273438 L 4.0507812 25.283203 A 0.5 0.5 0 0 0 4.5 26 A 0.5 0.5 0 0 0 4.6464844 25.978516 L 4.6484375 25.978516 L 4.6503906 25.982422 L 7 25.097656 L 4.9042969 23.003906 z"/></svg>