<svg fill="#000000" xmlns="http://www.w3.org/2000/svg"  viewBox="0 0 26 26" width="100px" height="100px"><path d="M 0 0 L 0 26 L 2.09375 26 C 2.09375 26 2.324219 25.117188 2.46875 24.875 C 2.613281 24.632813 2.867188 23.996094 4.03125 24.09375 C 5.195313 24.191406 6.75 24.488281 7.71875 24.34375 C 8.6875 24.199219 8.921875 23.574219 8.96875 23.1875 C 9.019531 22.800781 8.75 21.59375 8.75 21.59375 C 8.75 21.59375 9.308594 21.257813 9.46875 21.1875 C 9.703125 21.082031 9.65625 20.71875 9.4375 20.59375 C 7.53125 19.496094 7.40625 19 7.40625 19 C 7.40625 19 9.167969 18.726563 9.71875 18.59375 C 10.101563 18.5 10.21875 18.289063 10.21875 18 C 10.21875 17.710938 9.84375 16.53125 9.84375 16.53125 C 9.84375 16.53125 11.6875 16.25 11.6875 15.5625 C 11.6875 15.078125 11.3125 14.675781 10.875 14.09375 C 10.4375 13.511719 9.285156 12.023438 9.0625 11.65625 C 8.839844 11.289063 8.914063 10.964844 9.15625 10.625 C 9.398438 10.285156 9.738281 10.136719 9.5 9.28125 C 9.382813 8.867188 8.53125 6.28125 8.53125 6.28125 C 9.652344 5.234375 9.210938 0.195313 0 0 Z M 19.53125 11.03125 C 19.105469 11.09375 18.765625 11.417969 18.6875 11.84375 L 17.125 20.125 L 15.5625 15.65625 C 15.429688 15.257813 15.066406 14.984375 14.648438 14.972656 C 14.226563 14.957031 13.84375 15.207031 13.6875 15.59375 L 12.3125 19 L 12 19 C 11.640625 18.996094 11.304688 19.183594 11.121094 19.496094 C 10.941406 19.808594 10.941406 20.191406 11.121094 20.503906 C 11.304688 20.816406 11.640625 21.003906 12 21 L 13 21 C 13.410156 21.003906 13.785156 20.757813 13.9375 20.375 L 14.53125 18.84375 L 16.46875 24.34375 C 16.613281 24.78125 17.039063 25.066406 17.5 25.027344 C 17.957031 24.992188 18.332031 24.644531 18.40625 24.1875 L 19.8125 16.71875 L 21.40625 23.3125 C 21.515625 23.71875 21.867188 24.015625 22.289063 24.050781 C 22.707031 24.085938 23.105469 23.851563 23.28125 23.46875 L 25.9375 17.375 C 26.160156 16.867188 25.929688 16.269531 25.421875 16.046875 C 24.914063 15.820313 24.316406 16.054688 24.09375 16.5625 L 22.625 19.90625 L 20.65625 11.78125 C 20.53125 11.277344 20.042969 10.953125 19.53125 11.03125 Z"/></svg>