<?xml version="1.0"?><svg fill="#000000" xmlns="http://www.w3.org/2000/svg"  viewBox="0 0 50 50" width="100px" height="100px">    <path d="M 18 2 C 9.93 2 7 7.4714375 7 11.148438 C 7 16.960437 12.534 20 18 20 C 23.333 20 29 16.832937 29 10.960938 C 29 5.7699375 24.374 2 18 2 z M 30 5 C 29.695 5 29.395609 5.0113438 29.099609 5.0273438 C 30.308609 6.7073437 31 8.7229375 31 10.960938 C 31 16.178937 27.448891 19.637625 23.087891 21.140625 C 25.265891 22.468625 27.89 23 30 23 C 35.333 23 41 19.832937 41 13.960938 C 41 8.7699375 36.374 5 30 5 z M 5.5 18 C 3.57 18 2 19.346 2 21 C 2 22.654 3.57 24 5.5 24 C 7.43 24 9 22.654 9 21 C 9 19.346 7.43 18 5.5 18 z M 44.5 18 C 42.57 18 41 19.346 41 21 C 41 22.654 42.57 24 44.5 24 C 46.43 24 48 22.654 48 21 C 48 19.346 46.43 18 44.5 18 z M 14.53125 24 C 9.34725 24 8 26.971 8 29.75 C 8 30.426 8.2247187 31.387187 8.3867188 31.992188 C 8.1757187 32.324187 8 32.81 8 33.5 C 8 34.828 8.5694844 35.539937 9.2714844 35.835938 C 9.5124844 36.716938 9.9920469 37.633359 10.498047 38.193359 L 10.498047 39.78125 C 10.163047 40.35825 9.1690938 40.780609 8.1210938 41.224609 C 6.0540937 42.099609 3.2259531 43.297453 3.0019531 46.939453 C 2.9849531 47.214453 3.0824844 47.484547 3.2714844 47.685547 C 3.4604844 47.885547 3.724 48 4 48 L 23.25 48 L 24 48 L 26 48 L 26.75 48 L 46 48 C 46.276 48 46.540516 47.886547 46.728516 47.685547 C 46.917516 47.484547 47.015047 47.2125 46.998047 46.9375 C 46.773047 43.2765 43.560844 42.085797 41.214844 41.216797 C 40.053844 40.785797 38.855 40.339438 38.5 39.773438 L 38.5 38.193359 C 39.006 37.633359 39.484563 36.717937 39.726562 35.835938 C 40.429563 35.541937 41 34.829 41 33.5 C 41 32.81 40.824281 32.324187 40.613281 31.992188 C 40.775281 31.387187 41 30.426 41 29.75 C 41 27.617 40.311844 25.333203 37.714844 25.033203 L 37.390625 24.488281 C 37.210625 24.185281 36.88425 24 36.53125 24 C 31.34725 24 30 26.971 30 29.75 C 30 30.426 30.224719 31.387187 30.386719 31.992188 C 30.175719 32.324187 30 32.81 30 33.5 C 30 34.828 30.569484 35.539937 31.271484 35.835938 C 31.512484 36.716938 31.992047 37.633359 32.498047 38.193359 L 32.498047 39.78125 C 32.163047 40.35825 31.169094 40.780609 30.121094 41.224609 C 28.054094 42.099609 25.225953 43.297453 25.001953 46.939453 C 25.00067 46.96021 25.009749 46.979317 25.009766 47 L 24.988281 47 C 24.988339 46.978688 24.999369 46.958892 24.998047 46.9375 C 24.773047 43.2765 21.560844 42.085797 19.214844 41.216797 C 18.053844 40.785797 16.855 40.339438 16.5 39.773438 L 16.5 38.193359 C 17.006 37.633359 17.484562 36.717937 17.726562 35.835938 C 18.429563 35.541937 19 34.829 19 33.5 C 19 32.81 18.824281 32.324187 18.613281 31.992188 C 18.775281 31.387187 19 30.426 19 29.75 C 19 27.617 18.311844 25.333203 15.714844 25.033203 L 15.390625 24.488281 C 15.210625 24.185281 14.88425 24 14.53125 24 z M 3.5 26 A 1.5 1.5 0 0 0 2 27.5 A 1.5 1.5 0 0 0 3.5 29 A 1.5 1.5 0 0 0 5 27.5 A 1.5 1.5 0 0 0 3.5 26 z M 46.5 26 A 1.5 1.5 0 0 0 45 27.5 A 1.5 1.5 0 0 0 46.5 29 A 1.5 1.5 0 0 0 48 27.5 A 1.5 1.5 0 0 0 46.5 26 z"/></svg>