<svg fill="#000000" xmlns="http://www.w3.org/2000/svg"  viewBox="0 0 26 26" width="100px" height="100px"><path d="M 12.5 0 C 11.675781 0 10.738281 0.363281 10.1875 1.3125 C 9.585938 2.3125 9.40625 3.585938 9.90625 4.6875 C 9.90625 4.789063 9.6875 4.59375 9.6875 5.09375 C 9.585938 5.59375 9.894531 6.292969 10.09375 6.59375 C 10.195313 6.695313 10.398438 6.804688 10.5 6.90625 C 10.5 6.90625 10.707031 7.792969 11.40625 8.59375 C 11.507813 9.195313 10.8125 9.59375 10.8125 9.59375 C 8.8125 9.894531 6.992188 10.898438 6.59375 12 L 19.40625 12 C 19.007813 10.898438 17.1875 9.894531 15.1875 9.59375 C 15.1875 9.59375 14.289063 9.394531 14.6875 8.59375 C 15.1875 7.992188 15.492188 7.199219 15.59375 7 C 15.59375 7 16.40625 6.394531 16.40625 5.59375 C 16.40625 4.695313 16.1875 4.6875 16.1875 4.6875 C 16.488281 3.789063 16.585938 0.414063 14.1875 0.8125 C 14.039063 0.363281 13.324219 0 12.5 0 Z M 22.5 8 C 21.671875 8 21 8.671875 21 9.5 C 21 10.328125 21.671875 11 22.5 11 C 22.785156 11 23.054688 10.917969 23.28125 10.78125 C 23.421875 10.949219 23.53125 11.117188 23.625 11.3125 C 23.839844 11.75 23.933594 12.304688 23.96875 13 L 1 13 C 0.398438 13 0 13.398438 0 14 L 0 16 L 2 19 L 4.3125 19 L 3.90625 16.59375 C 3.804688 16.292969 4.105469 16 4.40625 16 L 21.59375 16 C 21.894531 16 22.195313 16.292969 22.09375 16.59375 L 21.6875 19 L 24 19 L 26 16 L 26 14 C 26 13.398438 25.601563 13 25 13 L 24.96875 13 C 24.929688 12.183594 24.800781 11.488281 24.5 10.875 C 24.34375 10.558594 24.144531 10.265625 23.90625 10 C 23.960938 9.84375 24 9.671875 24 9.5 C 24 8.671875 23.328125 8 22.5 8 Z M 5.59375 17 C 5.292969 17 5.09375 17.292969 5.09375 17.59375 L 6.3125 26 L 19.59375 26 L 20.90625 17.59375 C 21.007813 17.292969 20.707031 17 20.40625 17 Z"/></svg>