<svg fill="#000000" xmlns="http://www.w3.org/2000/svg"  viewBox="0 0 50 50" width="100px" height="100px"><path d="M 32.09375 0 C 31.761719 -0.0351563 31.433594 0.105469 31.21875 0.375 L 28.21875 4.125 C 27.742188 4.722656 27.039063 5.140625 26.28125 5.25 L 26 5.28125 C 24.664063 5.46875 22.113281 6.957031 20.84375 10.0625 C 19.574219 13.167969 15.71875 22.90625 15.71875 22.90625 C 15.105469 24.441406 15.839844 26.199219 17.375 26.8125 C 18.910156 27.429688 20.667969 26.691406 21.28125 25.15625 L 25.71875 14 L 47.0625 14 L 49.84375 9.53125 C 49.996094 9.289063 50.050781 8.992188 49.96875 8.71875 C 49.890625 8.445313 49.695313 8.214844 49.4375 8.09375 L 32.4375 0.09375 C 32.332031 0.0429688 32.203125 0.0117188 32.09375 0 Z M 16.21875 13.03125 C 13.871094 13.03125 11.675781 14.207031 10.375 16.15625 L 6.28125 22.3125 L 0.4375 26.1875 C 0.09375 26.417969 -0.0585938 26.847656 0.03125 27.25 L 0.875 31.03125 L 4.03125 45.25 C 4.132813 45.707031 4.53125 46.03125 5 46.03125 L 10 46.03125 L 10 43.96875 C 10 41.785156 11.796875 40 14 40 C 15.199219 40 16.265625 40.546875 17 41.375 C 17.734375 40.546875 18.800781 40 20 40 C 21.199219 40 22.265625 40.546875 23 41.375 C 23.734375 40.546875 24.800781 40 26 40 C 27.199219 40 28.265625 40.546875 29 41.375 C 29.734375 40.546875 30.800781 40 32 40 C 34.207031 40 36 41.785156 36 43.96875 L 36 46.03125 L 42 46.03125 C 43.65625 46.03125 45 44.6875 45 43.03125 C 45 41.375 43.65625 40.03125 42 40.03125 L 40 40.03125 C 39.445313 40.03125 39 39.585938 39 39.03125 C 39 38.476563 39.445313 38.03125 40 38.03125 L 43 38.03125 C 44.65625 38.03125 46 36.6875 46 35.03125 C 46 33.375 44.65625 32.03125 43 32.03125 L 41 32.03125 C 40.445313 32.03125 40 31.585938 40 31.03125 C 40 30.476563 40.445313 30.03125 41 30.03125 L 44 30.03125 C 45.65625 30.03125 47 28.6875 47 27.03125 C 47 25.375 45.65625 24.03125 44 24.03125 L 42 24.03125 C 41.445313 24.03125 41 23.585938 41 23.03125 C 41 22.476563 41.445313 22.03125 42 22.03125 L 45 22.03125 C 46.65625 22.03125 48 20.6875 48 19.03125 C 48 17.375 46.65625 16.03125 45 16.03125 L 27.09375 16.03125 L 23.125 25.9375 C 22.34375 27.890625 20.484375 29.0625 18.5 29.0625 C 17.882813 29.0625 17.230469 28.960938 16.625 28.71875 C 14.066406 27.695313 12.820313 24.777344 13.84375 22.21875 L 17.53125 13.03125 Z M 14 42 C 12.894531 42 12 42.886719 12 43.96875 L 12 47.0625 C 12 48.144531 12.894531 49.03125 14 49.03125 C 15.105469 49.03125 16 48.144531 16 47.0625 L 16 43.96875 C 16 42.886719 15.105469 42 14 42 Z M 20 42 C 18.894531 42 18 42.886719 18 43.96875 L 18 47.0625 C 18 48.144531 18.894531 49.03125 20 49.03125 C 21.105469 49.03125 22 48.144531 22 47.0625 L 22 43.96875 C 22 42.886719 21.105469 42 20 42 Z M 26 42 C 24.894531 42 24 42.886719 24 43.96875 L 24 47.0625 C 24 48.144531 24.894531 49.03125 26 49.03125 C 27.105469 49.03125 28 48.144531 28 47.0625 L 28 43.96875 C 28 42.886719 27.105469 42 26 42 Z M 32 42 C 30.894531 42 30 42.886719 30 43.96875 L 30 47.0625 C 30 48.144531 30.894531 49.03125 32 49.03125 C 33.105469 49.03125 34 48.144531 34 47.0625 L 34 43.96875 C 34 42.886719 33.105469 42 32 42 Z"/></svg>