<svg fill="#000000" xmlns="http://www.w3.org/2000/svg"  viewBox="0 0 26 26" width="100px" height="100px"><path d="M 8 0 C 5.800781 0 4 1.800781 4 4 L 4 11 L 1 11 C 0.398438 11 0 11.5 0 12 L 0 18 C 0 18.5 0.398438 19 1 19 L 4 19 L 4 22 C 4 24.199219 5.800781 26 8 26 L 20 26 C 22.199219 26 24 24.199219 24 22 L 24 8 C 24 6.898438 23.011719 5.886719 21.3125 4.1875 C 21.011719 3.988281 20.800781 3.699219 20.5 3.5 C 20.300781 3.199219 20.011719 2.988281 19.8125 2.6875 C 18.113281 0.988281 17.101563 0 16 0 Z M 8 2 L 15.3125 2 C 16.011719 2.199219 16 3.101563 16 4 L 16 7 C 16 7.601563 16.398438 8 17 8 L 20 8 C 21 8 22 8 22 9 L 22 22 C 22 23.101563 21.101563 24 20 24 L 8 24 C 6.898438 24 6 23.101563 6 22 L 6 19 L 20 19 C 20.601563 19 21 18.5 21 18 L 21 12 C 21 11.5 20.601563 11 20 11 L 6 11 L 6 4 C 6 2.898438 6.898438 2 8 2 Z M 13.4375 12 C 13.460938 11.988281 13.5 12 13.5 12 L 14.59375 12 C 14.695313 12 14.6875 12.09375 14.6875 12.09375 L 15 17.5 C 15.101563 17.800781 15.101563 17.8125 15 17.8125 L 14.09375 17.8125 C 13.992188 17.8125 14 17.6875 14 17.6875 L 13.90625 15.8125 L 13.90625 15.09375 C 13.90625 15.292969 13.8125 15.488281 13.8125 15.6875 L 13.3125 17.59375 C 13.3125 17.695313 13.1875 17.6875 13.1875 17.6875 L 12.5 17.6875 C 12.398438 17.6875 12.40625 17.695313 12.40625 17.59375 L 12 15.6875 C 12 15.539063 11.933594 15.378906 11.90625 15.1875 L 11.8125 17.59375 C 11.8125 17.695313 11.6875 17.6875 11.6875 17.6875 L 10.6875 17.6875 L 10.6875 17.59375 L 11.09375 12.1875 C 11.09375 12.085938 11.1875 12.09375 11.1875 12.09375 L 12 12.09375 C 12.101563 12.09375 12.09375 12.085938 12.09375 12.1875 L 12.59375 14.5 C 12.695313 14.800781 12.710938 15.113281 12.8125 15.3125 C 12.914063 14.914063 13 14.492188 13 14.09375 L 13.40625 12.09375 C 13.40625 12.042969 13.414063 12.011719 13.4375 12 Z M 2.1875 12.1875 L 3.1875 12.1875 C 3.289063 12.1875 3.3125 12.3125 3.3125 12.3125 L 3.3125 14.3125 L 4.09375 14.3125 L 4.09375 12.3125 C 4.09375 12.210938 4.1875 12.1875 4.1875 12.1875 L 5.1875 12.1875 C 5.289063 12.1875 5.3125 12.3125 5.3125 12.3125 L 5.3125 17.6875 L 5.40625 17.6875 C 5.40625 17.789063 5.3125 17.8125 5.3125 17.8125 L 4.3125 17.8125 C 4.210938 17.8125 4.1875 17.6875 4.1875 17.6875 L 4.1875 15.59375 L 3.3125 15.59375 L 3.3125 17.6875 C 3.3125 17.789063 3.1875 17.8125 3.1875 17.8125 L 2.1875 17.8125 C 2.085938 17.8125 2.09375 17.6875 2.09375 17.6875 L 2.09375 12.3125 C 2.09375 12.210938 2.1875 12.1875 2.1875 12.1875 Z M 6.5 12.1875 L 9.5 12.1875 C 9.601563 12.1875 9.59375 12.3125 9.59375 12.3125 L 9.59375 13.3125 C 9.59375 13.414063 9.5 13.40625 9.5 13.40625 L 8.59375 13.40625 L 8.59375 17.6875 C 8.59375 17.789063 8.5 17.8125 8.5 17.8125 L 7.5 17.8125 C 7.398438 17.8125 7.40625 17.6875 7.40625 17.6875 L 7.40625 13.40625 L 6.5 13.40625 C 6.398438 13.40625 6.40625 13.3125 6.40625 13.3125 L 6.40625 12.3125 C 6.40625 12.210938 6.5 12.1875 6.5 12.1875 Z M 16.59375 12.1875 L 17.59375 12.1875 C 17.695313 12.1875 17.6875 12.3125 17.6875 12.3125 L 17.6875 16.6875 L 19 16.6875 C 19.101563 16.6875 19.09375 16.8125 19.09375 16.8125 L 19.09375 17.6875 C 19.09375 17.789063 19 17.8125 19 17.8125 L 16.59375 17.8125 C 16.492188 17.8125 16.5 17.6875 16.5 17.6875 L 16.5 12.3125 C 16.5 12.210938 16.59375 12.1875 16.59375 12.1875 Z"/></svg>