<svg fill="#000000" xmlns="http://www.w3.org/2000/svg"  viewBox="0 0 26 26" width="100px" height="100px"><path d="M 12.8125 0 C 12.738281 0.0117188 12.644531 0.0429688 12.59375 0.09375 C 12.492188 0.195313 9.914063 2.601563 8.3125 5 C 8.210938 5.199219 8.210938 5.394531 8.3125 5.59375 C 8.414063 5.894531 8.613281 6 8.8125 6 L 11 6 L 11 11 L 6 11 L 6 8.8125 C 6 8.613281 5.886719 8.414063 5.6875 8.3125 C 5.488281 8.210938 5.199219 8.210938 5 8.3125 C 2.601563 9.914063 0.195313 12.492188 0.09375 12.59375 C 0.09375 12.695313 0 12.898438 0 13 C 0 13.101563 -0.0078125 13.304688 0.09375 13.40625 C 0.195313 13.507813 2.5 16.085938 5 17.6875 C 5.199219 17.789063 5.488281 17.789063 5.6875 17.6875 C 5.886719 17.585938 6 17.386719 6 17.1875 L 6 15 L 11 15 L 11 20 L 8.8125 20 C 8.613281 20 8.414063 20.113281 8.3125 20.3125 C 8.210938 20.511719 8.210938 20.707031 8.3125 20.90625 C 9.914063 23.304688 12.492188 25.710938 12.59375 25.8125 C 12.695313 25.914063 12.800781 25.90625 13 25.90625 C 13.199219 25.90625 13.304688 25.914063 13.40625 25.8125 C 13.507813 25.710938 16.085938 23.40625 17.6875 20.90625 C 17.789063 20.804688 17.789063 20.511719 17.6875 20.3125 C 17.585938 20.113281 17.386719 20 17.1875 20 L 15 20 L 15 15 L 20 15 L 20 17.1875 C 20 17.386719 20.113281 17.585938 20.3125 17.6875 C 20.511719 17.789063 20.707031 17.789063 20.90625 17.6875 C 23.304688 16.085938 25.710938 13.507813 25.8125 13.40625 C 25.914063 13.304688 25.90625 13.199219 25.90625 13 C 25.90625 12.800781 25.914063 12.695313 25.8125 12.59375 C 25.710938 12.492188 23.40625 9.914063 20.90625 8.3125 C 20.707031 8.210938 20.511719 8.210938 20.3125 8.3125 C 20.113281 8.414063 20 8.613281 20 8.8125 L 20 11 L 15 11 L 15 6 L 17.1875 6 C 17.386719 6 17.585938 5.886719 17.6875 5.6875 C 17.789063 5.488281 17.789063 5.292969 17.6875 5.09375 C 16.085938 2.695313 13.507813 0.289063 13.40625 0.1875 C 13.304688 0.0859375 13.101563 0 13 0 C 12.949219 0 12.886719 -0.0117188 12.8125 0 Z"/></svg>