<svg fill="#000000" xmlns="http://www.w3.org/2000/svg"  viewBox="0 0 26 26" width="100px" height="100px"><path d="M 21.125 0 L 4.875 0 C 2.183594 0 0 2.183594 0 4.875 L 0 21.125 C 0 23.816406 2.183594 26 4.875 26 L 21.125 26 C 23.816406 26 26 23.816406 26 21.125 L 26 4.875 C 26 2.183594 23.816406 0 21.125 0 Z M 11.25 14.027344 C 11.25 15.972656 10.117188 16.382813 9.164063 16.382813 C 8.847656 16.382813 8.464844 16.316406 8.230469 16.21875 C 8.121094 16.175781 8.058594 16.058594 8.082031 15.945313 L 8.199219 15.304688 C 8.210938 15.230469 8.257813 15.167969 8.324219 15.128906 C 8.386719 15.09375 8.464844 15.089844 8.535156 15.117188 C 8.613281 15.144531 8.820313 15.214844 9.101563 15.214844 C 9.574219 15.214844 9.96875 15.121094 9.96875 13.964844 L 9.96875 9.96875 C 9.96875 9.828125 10.078125 9.71875 10.21875 9.71875 L 11 9.71875 C 11.140625 9.71875 11.25 9.828125 11.25 9.96875 Z M 14.546875 16.375 C 13.933594 16.375 13.238281 16.199219 12.859375 15.945313 C 12.769531 15.882813 12.726563 15.769531 12.757813 15.664063 L 12.957031 15.007813 C 12.980469 14.933594 13.035156 14.875 13.105469 14.847656 C 13.179688 14.820313 13.261719 14.824219 13.328125 14.867188 C 13.691406 15.09375 14.167969 15.226563 14.601563 15.226563 C 15.238281 15.226563 15.621094 14.933594 15.621094 14.441406 C 15.621094 14.054688 15.464844 13.785156 14.636719 13.46875 C 13.453125 13.046875 12.875 12.40625 12.875 11.515625 C 12.875 10.414063 13.804688 9.617188 15.085938 9.617188 C 15.851563 9.617188 16.332031 9.824219 16.550781 9.945313 C 16.65625 10.007813 16.703125 10.132813 16.664063 10.246094 L 16.449219 10.886719 C 16.425781 10.953125 16.371094 11.011719 16.304688 11.035156 C 16.234375 11.066406 16.160156 11.058594 16.09375 11.023438 C 15.917969 10.925781 15.550781 10.765625 15.0625 10.765625 C 14.402344 10.765625 14.167969 11.121094 14.167969 11.425781 C 14.167969 11.785156 14.324219 12.019531 15.214844 12.363281 C 16.058594 12.6875 16.921875 13.183594 16.921875 14.378906 C 16.921875 15.371094 16.1875 16.375 14.546875 16.375 Z"/></svg>