<svg xmlns="http://www.w3.org/2000/svg" width="100" height="100" baseProfile="basic" viewBox="0 0 48 48"><circle cx="24" cy="24" r="20" fill="#8fcae6"/><path fill="#324561" d="M32.658,30.247l-6.697-5.86C25.986,24.261,26,24.133,26,24c0-0.738-0.405-1.376-1-1.723V9	c0-0.553-0.447-1-1-1s-1,0.447-1,1v13.277c-0.595,0.346-1,0.984-1,1.723c0,1.105,0.896,2,2,2c0.224,0,0.436-0.045,0.637-0.113	l6.704,5.866C31.531,31.919,31.766,32,32,32c0.278,0,0.555-0.115,0.753-0.342C33.116,31.243,33.074,30.611,32.658,30.247z"/></svg>