<svg xmlns="http://www.w3.org/2000/svg" width="100" height="100" baseProfile="basic" viewBox="0 0 48 48"><path fill="#f2ca00" d="M39.067,25.769L22.928,9.694c-2.279-2.265-5.331-3.477-8.517-3.481	c-3.212,0.02-6.221,1.293-8.472,3.584c-4.586,4.67-4.553,12.234,0.076,16.863c0,0,14.959,14.958,14.96,14.959l1.013,1.013	c0.585,0.584,1.354,0.876,2.121,0.876c0.769,0,1.537-0.293,2.122-0.877c1.168-1.168,1.169-3.068,0.004-4.238l0.102,0.102	c0.566,0.566,1.32,0.879,2.122,0.879c0.801,0,1.555-0.312,2.121-0.879c1.17-1.17,1.17-3.073,0-4.243	c0.566,0.566,1.32,0.879,2.121,0.879c0.802,0,1.556-0.312,2.121-0.878c0.566-0.566,0.879-1.32,0.879-2.122	c0-0.801-0.312-1.555-0.879-2.121c0.585,0.585,1.354,0.878,2.121,0.878c0.769,0,1.537-0.293,2.122-0.878	c0.566-0.566,0.879-1.32,0.879-2.121C39.946,27.088,39.634,26.334,39.067,25.769z"/><path fill="#324561" d="M34.117,31.718c-0.256,0-0.512-0.098-0.707-0.293l-3.121-3.121c-0.391-0.391-0.391-1.023,0-1.414	s1.023-0.391,1.414,0l3.121,3.121c0.391,0.391,0.391,1.023,0,1.414C34.629,31.62,34.373,31.718,34.117,31.718z"/><path fill="#324561" d="M24.925,39.496c-0.256,0-0.512-0.098-0.707-0.293l-2.414-2.414c-0.391-0.391-0.391-1.023,0-1.414	s1.023-0.391,1.414,0l2.414,2.414c0.391,0.391,0.391,1.023,0,1.414C25.437,39.398,25.181,39.496,24.925,39.496z"/><path fill="#324561" d="M29.875,35.961c-0.256,0-0.512-0.098-0.707-0.293l-3.121-3.122c-0.391-0.391-0.391-1.023,0-1.414	s1.023-0.391,1.414,0l3.121,3.122c0.391,0.391,0.391,1.023,0,1.414C30.387,35.863,30.131,35.961,29.875,35.961z"/><path fill="#324561" d="M40,28c-0.256,0-0.512-0.098-0.707-0.293c-0.391-0.391-0.391-1.023,0-1.414l2.7-2.7	c3.47-3.47,3.47-9.116,0-12.586c-3.471-3.471-9.115-3.471-12.586,0l-7.12,7.121c0.804,0.955,2.086,1.411,3.321,1.132	c1.327-0.299,2.662-0.867,5.104-2.17c0.484-0.26,1.094-0.078,1.353,0.411c0.261,0.487,0.076,1.093-0.411,1.353	c-2.244,1.198-3.881,1.969-5.604,2.357c-2.344,0.532-4.789-0.596-5.932-2.741c-0.207-0.388-0.136-0.866,0.176-1.177l7.7-7.7	c4.25-4.25,11.164-4.25,15.414,0s4.25,11.164,0,15.414l-2.7,2.7C40.512,27.902,40.256,28,40,28z"/></svg>