<svg xmlns="http://www.w3.org/2000/svg" width="100" height="100" baseProfile="basic" viewBox="0 0 48 48"><path fill="#8fcae6" d="M27.789,6H6.211C3.338,6,1,8.243,1,11v14c0,2.757,2.338,5,5.211,5h21.578C30.662,30,33,27.757,33,25	V11C33,8.243,30.662,6,27.789,6z"/><path fill="#8fcae6" d="M19.774,27.367c-0.351-0.429-0.98-0.49-1.407-0.142C18.367,27.226,8.553,27,8,27s-1,0.447-1,1v6.89	c0,0.781,0.438,1.474,1.145,1.808c0.276,0.131,0.569,0.195,0.86,0.195c0.45,0,0.895-0.154,1.261-0.454l9.367-7.664	C20.061,28.424,20.124,27.794,19.774,27.367z"/><path fill="#324561" d="M39.93,45.04c-0.421,0-0.836-0.144-1.179-0.425l-6.782-5.549h-9.319C20.086,39.066,18,37.062,18,34.6	V30c0-0.553,0.447-1,1-1s1,0.447,1,1v4.6c0,1.36,1.188,2.467,2.649,2.467h9.677c0.23,0,0.454,0.08,0.633,0.226L39.8,42.89v-4.823	c0-0.553,0.447-1,1-1h1.551C43.812,37.066,45,35.96,45,34.6V21.467C45,20.106,43.812,19,42.351,19H33c-0.553,0-1-0.447-1-1	s0.447-1,1-1h9.351C44.914,17,47,19.004,47,21.467V34.6c0,2.463-2.086,4.467-4.649,4.467H41.8v4.104	c0,0.729-0.409,1.375-1.067,1.688C40.475,44.98,40.2,45.04,39.93,45.04z"/></svg>