<svg xmlns="http://www.w3.org/2000/svg" width="100" height="100" baseProfile="basic" viewBox="0 0 48 48"><path fill="#f2ca00" d="M42.146,8.732l-2.879-2.879c-0.975-0.975-2.561-0.975-3.535,0l-28.5,28.5	c-0.102,0.102-0.181,0.225-0.23,0.359l-2.939,7.939c-0.136,0.367-0.046,0.778,0.23,1.055C4.483,43.898,4.739,44,5,44	c0.116,0,0.234-0.021,0.348-0.062l7.939-2.939c0.135-0.05,0.258-0.129,0.359-0.23l28.5-28.5	C43.121,11.293,43.121,9.707,42.146,8.732z"/><path fill="#324561" d="M38,17c-0.256,0-0.512-0.098-0.707-0.293l-6-6c-0.391-0.391-0.391-1.023,0-1.414s1.023-0.391,1.414,0	l6,6c0.391,0.391,0.391,1.023,0,1.414C38.512,16.902,38.256,17,38,17z"/><path fill="#324561" d="M45,44c-12.546,0-15-3.3-15-9c0-0.553,0.447-1,1-1s1,0.447,1,1c0,3.702,0.762,6.428,9.804,6.92	c-1.021-1.172-1.599-2.551-2.134-3.828c-1.082-2.58-1.936-4.617-5.794-5.1c-0.548-0.068-0.937-0.568-0.868-1.116	s0.565-0.93,1.116-0.868c5.007,0.626,6.273,3.646,7.39,6.311c0.858,2.047,1.599,3.814,3.87,4.758c0.44,0.184,0.69,0.651,0.597,1.119	C45.888,43.663,45.477,44,45,44z"/><path fill="#324561" d="M31,36c-0.171,0-0.343-0.044-0.498-0.133c-0.025-0.015-2.497-1.438-5.094-3.182	c-0.458-0.308-0.58-0.929-0.272-1.388c0.307-0.458,0.93-0.582,1.388-0.272c1.74,1.169,3.424,2.19,4.316,2.721l1.906-1.906	c-0.523-0.882-1.526-2.533-2.676-4.249c-0.308-0.459-0.185-1.08,0.274-1.388c0.458-0.308,1.079-0.186,1.388,0.274	c1.722,2.571,3.12,5,3.135,5.024c0.225,0.392,0.159,0.886-0.16,1.205l-3,3C31.515,35.899,31.259,36,31,36z"/><path fill="#324561" d="M15.882,22.984c-0.295,0-0.586-0.129-0.783-0.377c-3.275-4.113-6.861-8.9-8.708-11.388	C5.459,9.966,5.586,8.252,6.693,7.145c1.141-1.141,2.942-1.23,4.19-0.214c2.348,1.915,6.864,5.62,10.746,8.934	c0.42,0.358,0.47,0.99,0.111,1.41c-0.359,0.421-0.991,0.468-1.41,0.111c-3.866-3.301-8.37-6.996-10.711-8.904	C9.169,8.112,8.519,8.146,8.107,8.559c-0.399,0.4-0.446,1.018-0.111,1.469c1.839,2.478,5.41,7.244,8.667,11.334	c0.344,0.433,0.272,1.062-0.159,1.405C16.319,22.913,16.1,22.984,15.882,22.984z"/></svg>