<svg xmlns="http://www.w3.org/2000/svg"  viewBox="0 0 48 48" width="100px" height="100px" baseProfile="basic"><path fill="#fc9c9c" d="M45.04,17.716c0.007-0.106,0.01-0.212,0.01-0.315c0-3.218-2.603-5.841-5.815-5.881	C38.062,8.757,35.375,6.95,32.32,6.95c-0.889,0-1.758,0.157-2.594,0.469C28.43,5.891,26.531,5,24.5,5	c-1.79,0-3.467,0.681-4.735,1.897C18.696,6.087,17.402,5.65,16.03,5.65c-2.075,0-3.976,1.02-5.127,2.706	C10.554,8.292,10.198,8.26,9.84,8.26c-3.248,0-5.89,2.638-5.89,5.88c0,0.258,0.019,0.517,0.055,0.778C2.767,15.765,2,17.176,2,18.7	c0,1.129,0.416,2.204,1.146,3.032C2.401,22.741,2,23.947,2,25.22c0,2.536,1.638,4.771,3.987,5.572	c0.307,1.971,1.58,2.753,2.625,3.395c0.533,0.327,1.036,0.637,1.451,1.09c1.186,1.291,0.797,5.17-0.004,7.384	c-0.11,0.307-0.065,0.647,0.122,0.914C10.368,43.841,10.674,44,11,44h6.04c0.519,0,0.95-0.396,0.996-0.912	C18.203,41.188,18.941,38,22,38c1.257,0,3.586-0.223,5.064-1.714c0.622-0.627,1.017-1.395,1.18-2.29	c2.721-0.096,5.134-1.778,6.19-4.247c0.27,0.033,0.542,0.051,0.815,0.051c2.391,0,4.582-1.326,5.72-3.382	c0.368,0.088,0.742,0.132,1.12,0.132c2.707,0,4.91-2.203,4.91-4.91C47,20.088,46.264,18.639,45.04,17.716z"/><path fill="#324561" d="M31,18.5h-1.166c-0.18-0.819-0.505-1.583-0.944-2.268l0.828-0.829c0.391-0.391,0.391-1.023,0-1.414	l-0.707-0.707c-0.391-0.391-1.023-0.391-1.414,0l-0.829,0.828c-0.685-0.44-1.449-0.765-2.268-0.944V12c0-0.553-0.447-1-1-1h-1	c-0.553,0-1,0.447-1,1v1.166c-0.819,0.18-1.583,0.505-2.268,0.944l-0.829-0.828c-0.391-0.391-1.023-0.391-1.414,0l-0.707,0.707	c-0.391,0.391-0.391,1.023,0,1.414l0.828,0.829c-0.44,0.685-0.765,1.449-0.944,2.268H15c-0.553,0-1,0.447-1,1v1c0,0.553,0.447,1,1,1	h1.166c0.18,0.819,0.505,1.583,0.944,2.268l-0.828,0.829c-0.391,0.391-0.391,1.023,0,1.414l0.707,0.707	c0.195,0.195,0.451,0.293,0.707,0.293s0.512-0.098,0.707-0.293l0.829-0.828c0.685,0.44,1.449,0.765,2.268,0.944V28	c0,0.553,0.447,1,1,1h1c0.553,0,1-0.447,1-1v-1.166c0.819-0.18,1.583-0.505,2.268-0.944l0.829,0.828	c0.195,0.195,0.451,0.293,0.707,0.293s0.512-0.098,0.707-0.293l0.707-0.707c0.391-0.391,0.391-1.023,0-1.414l-0.828-0.829	c0.44-0.685,0.765-1.449,0.944-2.268H31c0.553,0,1-0.447,1-1v-1C32,18.947,31.553,18.5,31,18.5z M23,25c-2.757,0-5-2.243-5-5	s2.243-5,5-5s5,2.243,5,5S25.757,25,23,25z"/></svg>