<svg xmlns="http://www.w3.org/2000/svg"  viewBox="0 0 48 48" width="100px" height="100px" baseProfile="basic"><path fill="#12d9e3" d="M29.414,4H13c-2.757,0-5,2.243-5,5v30c0,2.757,2.243,5,5,5h22c2.757,0,5-2.243,5-5V14.586L29.414,4z"/><path fill="#324561" d="M40,16h-7c-2.757,0-5-2.243-5-5V4c0-0.552,0.447-1,1-1s1,0.448,1,1v7c0,1.654,1.346,3,3,3h7	c0.553,0,1,0.448,1,1S40.553,16,40,16z"/><path fill="#324561" d="M11.639,30.105c0-2.951,1.682-4.734,4.316-4.734c1.713,0,3.04,0.762,3.668,2.082	c0.127,0.24,0.191,0.488,0.191,0.717c0,0.502-0.337,0.824-0.845,0.824c-0.432,0-0.704-0.189-0.914-0.635	c-0.419-0.932-1.168-1.402-2.082-1.402c-1.447,0-2.38,1.213-2.38,3.143c0,1.955,0.92,3.16,2.387,3.16	c0.965,0,1.688-0.438,2.101-1.357c0.196-0.432,0.438-0.604,0.845-0.604c0.539,0,0.895,0.344,0.895,0.852	c0,0.215-0.051,0.418-0.146,0.641c-0.57,1.27-1.936,2.051-3.668,2.051C13.289,34.842,11.639,33.064,11.639,30.105z"/><path fill="#324561" d="M21.064,33.082c-0.062-0.164-0.102-0.342-0.102-0.514c0-0.508,0.35-0.844,0.845-0.844	c0.394,0,0.653,0.152,0.882,0.559c0.299,0.697,1.016,1.016,1.893,1.016c1.027,0,1.727-0.496,1.727-1.168	c0-0.604-0.432-0.945-1.581-1.182l-0.972-0.189c-1.828-0.361-2.723-1.238-2.723-2.604c0-1.676,1.46-2.785,3.498-2.785	c1.676,0,2.938,0.703,3.345,1.896c0.044,0.127,0.069,0.262,0.069,0.426c0,0.457-0.33,0.768-0.818,0.768	c-0.432,0-0.698-0.17-0.914-0.564c-0.305-0.691-0.895-0.977-1.682-0.977c-0.946,0-1.574,0.443-1.574,1.117	c0,0.564,0.438,0.914,1.523,1.129l0.965,0.197c1.941,0.387,2.779,1.168,2.779,2.559c0,1.789-1.402,2.92-3.688,2.92	C22.646,34.842,21.434,34.086,21.064,33.082z"/><path fill="#324561" d="M29.271,33.082c-0.062-0.164-0.102-0.342-0.102-0.514c0-0.508,0.35-0.844,0.845-0.844	c0.394,0,0.653,0.152,0.882,0.559c0.299,0.697,1.016,1.016,1.893,1.016c1.027,0,1.727-0.496,1.727-1.168	c0-0.604-0.432-0.945-1.581-1.182l-0.972-0.189c-1.828-0.361-2.723-1.238-2.723-2.604c0-1.676,1.46-2.785,3.498-2.785	c1.676,0,2.938,0.703,3.345,1.896c0.044,0.127,0.069,0.262,0.069,0.426c0,0.457-0.33,0.768-0.818,0.768	c-0.432,0-0.698-0.17-0.914-0.564c-0.305-0.691-0.895-0.977-1.682-0.977c-0.946,0-1.574,0.443-1.574,1.117	c0,0.564,0.438,0.914,1.523,1.129l0.965,0.197c1.941,0.387,2.779,1.168,2.779,2.559c0,1.789-1.402,2.92-3.688,2.92	C30.853,34.842,29.641,34.086,29.271,33.082z"/></svg>