<svg xmlns="http://www.w3.org/2000/svg" width="100" height="100" baseProfile="basic" viewBox="0 0 48 48"><path fill="#12d9e3" d="M28.5,42h-10c-1.381,0-2.5-1.119-2.5-2.5s1.119-2.5,2.5-2.5h8.516l5.29-9.697	C32.743,26.5,33.585,26,34.5,26h11c1.381,0,2.5,1.119,2.5,2.5S46.881,31,45.5,31h-9.516l-5.29,9.697C30.257,41.5,29.415,42,28.5,42z"/><path fill="#12d9e3" d="M38,26h-8c-0.53,0-1.039-0.211-1.414-0.586l-4.828-4.828C23.38,20.208,22.877,20,22.343,20H21	c-1.104,0-2-0.896-2-2s0.896-2,2-2h1.343c1.603,0,3.11,0.624,4.243,1.758L30.828,22H38c1.104,0,2,0.896,2,2S39.104,26,38,26z"/><path fill="#324561" d="M21.121,14.061c-2.773,0-5.03-2.257-5.03-5.03S18.348,4,21.121,4s5.03,2.257,5.03,5.03	S23.895,14.061,21.121,14.061z M21.121,6c-1.671,0-3.03,1.359-3.03,3.03s1.359,3.03,3.03,3.03s3.03-1.359,3.03-3.03	S22.792,6,21.121,6z"/><path fill="#12d9e3" d="M44.152,30.333l-11.62-3.386L26,34h-9c-2.209,0-4,1.791-4,4v0c0,2.209,1.791,4,4,4h8l5.231-3.666	L36,30L44.152,30.333z"/><path fill="#12d9e3" d="M26,34V23l3.777,1.996L22,16h-1c-2.761,0-5,2.239-5,5v14L26,34z"/><path fill="#12d9e3" d="M45.5,42h-18c-1.381,0-2.5-1.119-2.5-2.5s1.119-2.5,2.5-2.5h18c1.381,0,2.5,1.119,2.5,2.5	S46.881,42,45.5,42z"/><path fill="#324561" d="M6,42c-2.757,0-5-2.243-5-5s2.243-5,5-5s5,2.243,5,5S8.757,42,6,42z M6,34c-1.654,0-3,1.346-3,3	s1.346,3,3,3s3-1.346,3-3S7.654,34,6,34z"/><path fill="#324561" d="M27,43c-0.553,0-1-0.447-1-1s0.447-1,1-1c1.842,0,3.564-0.987,4.495-2.577l4.462-7.62	c0.279-0.479,0.893-0.637,1.368-0.358c0.477,0.279,0.637,0.892,0.358,1.368l-4.462,7.62C31.934,41.633,29.55,43,27,43z"/><path fill="#324561" d="M14,39c-0.553,0-1-0.447-1-1c0-2.206,1.794-4,4-4h8.525l5.853-7.163C32.331,25.67,33.742,25,35.25,25	H45c0.553,0,1,0.447,1,1s-0.447,1-1,1h-9.75c-0.904,0-1.751,0.401-2.323,1.103l-6.152,7.53C26.585,35.865,26.3,36,26,36h-9	c-1.103,0-2,0.897-2,2C15,38.553,14.553,39,14,39z"/></svg>