<svg xmlns="http://www.w3.org/2000/svg"  viewBox="0 0 48 48" width="100px" height="100px" baseProfile="basic"><path fill="#f2ca00" d="M24.676,27.868l-3.886-6.697V19.9c0-4.506-1.755-8.748-4.943-11.947C12.685,4.79,8.48,3.031,4.007,3	C4.005,3,4.002,3,4,3C3.736,3,3.482,3.104,3.295,3.29C3.106,3.479,3,3.733,3,4v40c0,0.553,0.447,1,1,1h7.59c0.553,0,1-0.447,1-1	v-3.1h3.53c2.605,0,4.787-1.952,5.074-4.54l0.549-4.944l1.823-0.607c0.001,0,0.003-0.001,0.004-0.001	c0.583-0.197,1.04-0.641,1.254-1.215C25.037,29.02,24.982,28.39,24.676,27.868z"/><path fill="#324561" d="M40,45c-0.006,0-0.013,0-0.019,0c-0.424-0.008-0.796-0.282-0.93-0.684L35,32.162l-3.052,9.154	c-0.123,0.37-0.451,0.635-0.839,0.678c-0.399,0.041-0.767-0.146-0.967-0.479L27.434,37H24c-0.553,0-1-0.447-1-1s0.447-1,1-1h4	c0.352,0,0.677,0.185,0.857,0.485l1.882,3.136l3.312-9.938C34.188,28.275,34.569,28,35,28s0.812,0.275,0.948,0.684l4.107,12.32	l2.008-5.355C42.21,35.259,42.583,35,43,35h4c0.553,0,1,0.447,1,1s-0.447,1-1,1h-3.307l-2.757,7.352C40.79,44.742,40.416,45,40,45z"/></svg>