<svg xmlns="http://www.w3.org/2000/svg" width="100" height="100" baseProfile="basic" viewBox="0 0 48 48"><path fill="#12d9e3" d="M44,10v28c0,0.46-0.31,0.86-0.76,0.97l-12,3C31.16,41.99,31.08,42,31,42c-0.11,0-0.23-0.02-0.34-0.06	l-13.71-4.9L5.24,39.97c-0.3,0.08-0.61,0.01-0.86-0.18C4.14,39.6,4,39.31,4,39V11c0-0.46,0.31-0.86,0.76-0.97l12-3	c0.19-0.05,0.39-0.04,0.58,0.03l13.71,4.9l1.15-0.29l-0.04,0.04L30,18l6.29-2.16l6.83-6.83c0.18,0.02,0.35,0.09,0.5,0.2	C43.86,9.4,44,9.69,44,10z"/><path fill="#324561" d="M17,35c-0.553,0-1-0.447-1-1V10c0-0.553,0.447-1,1-1s1,0.447,1,1v24C18,34.553,17.553,35,17,35z"/><path fill="#324561" d="M31,40c-0.553,0-1-0.447-1-1V22c0-0.553,0.447-1,1-1s1,0.447,1,1v17C32,39.553,31.553,40,31,40z"/><path fill="#324561" d="M30,19c-0.261,0-0.517-0.103-0.707-0.293c-0.27-0.27-0.362-0.67-0.239-1.031l2.155-6.292	c0.05-0.145,0.132-0.275,0.239-0.383l10.32-10.32c0.905-0.906,2.38-0.906,3.287-0.001l2.263,2.264c0.906,0.906,0.906,2.382,0,3.288	l-10.319,10.32c-0.107,0.107-0.238,0.189-0.383,0.239l-6.292,2.155C30.218,18.982,30.108,19,30,19z M33.026,12.251l-1.419,4.142	l4.142-1.419L45.904,4.817c0.127-0.127,0.127-0.333,0-0.46l-2.262-2.263c-0.128-0.128-0.333-0.125-0.461,0.001L33.026,12.251z"/><rect width="2" height="5.657" x="34" y="10.172" fill="#324561" transform="rotate(-45.001 35 13)"/></svg>