<svg xmlns="http://www.w3.org/2000/svg"  viewBox="0 0 48 48" width="100px" height="100px" baseProfile="basic"><circle cx="24" cy="24" r="20" fill="#12d9e3"/><path fill="#324561" d="M37,35H11c-0.553,0-1-0.447-1-1s0.447-1,1-1h26c0.553,0,1,0.447,1,1S37.553,35,37,35z"/><path fill="#324561" d="M37,15H11c-0.553,0-1-0.447-1-1s0.447-1,1-1h26c0.553,0,1,0.447,1,1S37.553,15,37,15z"/><path fill="#324561" d="M30.999,39c-0.155,0-0.312-0.036-0.46-0.112c-0.49-0.255-0.681-0.858-0.427-1.349	C31.975,33.954,33,29.146,33,24s-1.025-9.954-2.888-13.539c-0.254-0.49-0.063-1.094,0.427-1.349	c0.491-0.254,1.093-0.063,1.349,0.427C33.895,13.403,35,18.539,35,24s-1.105,10.597-3.112,14.461C31.709,38.804,31.36,39,30.999,39z"/><path fill="#324561" d="M17.001,39c-0.361,0-0.71-0.196-0.889-0.539C14.105,34.597,13,29.461,13,24	c0-5.46,1.105-10.596,3.112-14.461c0.255-0.49,0.856-0.682,1.349-0.427c0.49,0.255,0.681,0.858,0.427,1.349	C16.025,14.047,15,18.854,15,24c0,5.146,1.025,9.954,2.888,13.539c0.254,0.49,0.063,1.094-0.427,1.349	C17.313,38.964,17.156,39,17.001,39z"/><path fill="#324561" d="M40,25H8c-0.553,0-1-0.447-1-1s0.447-1,1-1h32c0.553,0,1,0.447,1,1S40.553,25,40,25z"/><path fill="#324561" d="M24,41c-0.553,0-1-0.447-1-1V8c0-0.553,0.447-1,1-1s1,0.447,1,1v32C25,40.553,24.553,41,24,41z"/></svg>