<svg xmlns="http://www.w3.org/2000/svg"  viewBox="0 0 48 48" width="100px" height="100px" baseProfile="basic"><path fill="#fca66c" d="M45,30c0,0.26-0.1,0.52-0.29,0.71L38,37.41V44c0,0.55-0.45,1-1,1H11c-0.55,0-1-0.45-1-1v-6.59	l-6.71-6.7C3.1,30.52,3,30.26,3,30H45z"/><path fill="#fca66c" d="M37.845,28.845l-0.177-0.557C35.708,22.135,30.215,18,24,18s-11.708,4.135-13.667,10.288	l-0.179,0.557c-0.313,0.985-0.139,2.068,0.467,2.896C11.206,32.541,12.1,33,13.071,33h21.857c0.972,0,1.865-0.459,2.45-1.259	C37.984,30.913,38.159,29.83,37.845,28.845z"/><path fill="#324561" d="M24,16c-3.705,0-6.72-3.364-6.72-7.5S20.295,1,24,1s6.72,3.364,6.72,7.5S27.705,16,24,16z M24,3	c-2.603,0-4.72,2.468-4.72,5.5S21.397,14,24,14s4.72-2.468,4.72-5.5S26.603,3,24,3z"/><path fill="#324561" d="M46,31H2c-0.553,0-1-0.447-1-1s0.447-1,1-1h44c0.553,0,1,0.447,1,1S46.553,31,46,31z"/><path fill="#324561" d="M42,31c-0.553,0-1-0.447-1-1v-7.559c0-0.61-0.273-1.18-0.751-1.561l-3.874-3.1	c-0.431-0.346-0.501-0.975-0.156-1.406c0.346-0.43,0.975-0.502,1.406-0.156l3.874,3.1C42.453,20.082,43,21.22,43,22.441V30	C43,30.553,42.553,31,42,31z"/><circle cx="37" cy="17" r="2" fill="#324561"/><path fill="#324561" d="M6,31c-0.553,0-1-0.447-1-1v-7.559c0-1.222,0.547-2.359,1.501-3.123l3.874-3.1	c0.433-0.346,1.061-0.274,1.406,0.156c0.345,0.432,0.274,1.061-0.156,1.406l-3.874,3.1C7.273,21.262,7,21.831,7,22.441V30	C7,30.553,6.553,31,6,31z"/><circle cx="11" cy="17" r="2" fill="#324561"/></svg>