<svg xmlns="http://www.w3.org/2000/svg" width="100" height="100" baseProfile="basic" viewBox="0 0 48 48"><path fill="#12d9e3" d="M29.414,4H13c-2.757,0-5,2.243-5,5v30c0,2.757,2.243,5,5,5h22c2.757,0,5-2.243,5-5V14.586L29.414,4z"/><path fill="#324561" d="M40,16h-7c-2.757,0-5-2.243-5-5V4c0-0.552,0.447-1,1-1s1,0.448,1,1v7c0,1.654,1.346,3,3,3h7	c0.553,0,1,0.448,1,1S40.553,16,40,16z"/><path fill="#324561" d="M11.118,31.963v-4.817c0-0.652,0.354-1.02,0.974-1.02s0.974,0.367,0.974,1.02v1.612h2.334v-1.612	c0-0.652,0.354-1.02,0.974-1.02s0.974,0.367,0.974,1.02v4.817c0,0.652-0.354,1.021-0.974,1.021s-0.974-0.368-0.974-1.021v-1.657	h-2.334v1.657c0,0.652-0.354,1.021-0.974,1.021S11.118,32.615,11.118,31.963z"/><path fill="#324561" d="M19.753,31.963v-4.17h-0.979c-0.515,0-0.858-0.28-0.858-0.776s0.335-0.776,0.858-0.776h3.904	c0.523,0,0.858,0.28,0.858,0.776s-0.345,0.776-0.858,0.776H21.7v4.17c0,0.652-0.354,1.021-0.974,1.021S19.753,32.615,19.753,31.963z"/><path fill="#324561" d="M24.107,32.083v-4.681c0-0.817,0.45-1.276,1.264-1.276c0.684,0,1.047,0.271,1.322,0.992l1.148,2.989	h0.037l1.144-2.989c0.275-0.722,0.638-0.992,1.322-0.992c0.813,0,1.264,0.459,1.264,1.276v4.681c0,0.574-0.309,0.9-0.851,0.9	s-0.85-0.326-0.85-0.9v-3.055h-0.036l-1.318,3.321c-0.133,0.335-0.345,0.486-0.689,0.486c-0.349,0-0.573-0.156-0.702-0.486	l-1.318-3.321h-0.037v3.055c0,0.574-0.308,0.9-0.85,0.9S24.107,32.657,24.107,32.083z"/><path fill="#324561" d="M32.521,31.849v-4.703c0-0.652,0.354-1.02,0.974-1.02s0.974,0.367,0.974,1.02v4.17h1.833	c0.515,0,0.858,0.28,0.858,0.776s-0.335,0.776-0.858,0.776h-2.807C32.874,32.868,32.521,32.501,32.521,31.849z"/></svg>