<svg xmlns="http://www.w3.org/2000/svg"  viewBox="0 0 48 48" width="100px" height="100px" baseProfile="basic"><path fill="#12d9e3" d="M41.632,40.735l-0.257-0.771C38.592,31.612,30.805,26,22,26S5.408,31.612,2.625,39.965l-0.257,0.771	c-0.412,1.234-0.212,2.548,0.549,3.604S4.86,46,6.162,46h31.676c1.302,0,2.484-0.605,3.245-1.661S42.044,41.97,41.632,40.735z"/><path fill="#324561" d="M22,24c-4.963,0-9-4.486-9-10s4.037-10,9-10s9,4.486,9,10S26.963,24,22,24z M22,6	c-3.859,0-7,3.589-7,8s3.141,8,7,8s7-3.589,7-8S25.859,6,22,6z"/><path fill="#324561" d="M38.295,13.938v-0.383c0-1.846,0.861-3.062,2.734-4.184c1.586-0.971,2.201-1.859,2.201-3.254	c0-1.777-1.34-2.98-3.35-2.98c-1.818,0-3.021,0.916-3.473,2.557c-0.232,0.834-0.533,1.094-1.148,1.094	c-0.697,0-1.08-0.41-1.08-1.121c0-0.588,0.109-1.053,0.355-1.586c0.807-1.941,2.816-3.076,5.441-3.076	c3.391,0,5.797,2.064,5.797,4.99c0,2.146-1.107,3.623-2.857,4.676c-1.736,1.025-2.229,1.791-2.229,3.227	c0,0.861-0.328,1.449-1.176,1.449S38.295,14.718,38.295,13.938z M37.939,19.462c0-0.889,0.684-1.559,1.559-1.559	c0.889,0,1.559,0.67,1.559,1.559c0,0.875-0.67,1.559-1.559,1.559C38.623,21.021,37.939,20.337,37.939,19.462z"/></svg>