<svg xmlns="http://www.w3.org/2000/svg" width="100" height="100" baseProfile="basic" viewBox="0 0 48 48"><polygon fill="#babffc" points="46 24 42 20 28 20 28 6 24 2 20 6 20 20 6 20 2 24 6 28 20 28 20 42 24 46 28 42 28 28 42 28"/><path fill="#324561" d="M31,10c-0.265,0-0.529-0.104-0.726-0.312L24,3.073l-6.274,6.615c-0.38,0.401-1.014,0.417-1.414,0.038	s-0.417-1.013-0.037-1.414l6.274-6.615c0.752-0.793,2.15-0.793,2.902,0l6.274,6.615c0.38,0.4,0.363,1.034-0.037,1.414	C31.495,9.909,31.247,10,31,10z"/><path fill="#324561" d="M9,32c-0.247,0-0.495-0.091-0.688-0.274l-6.615-6.274C1.3,25.075,1.073,24.546,1.073,24	s0.227-1.075,0.623-1.451l6.615-6.274c0.401-0.379,1.035-0.363,1.414,0.038c0.38,0.4,0.363,1.034-0.037,1.414L3.073,24l6.615,6.274	c0.4,0.38,0.417,1.013,0.037,1.414C9.529,31.896,9.265,32,9,32z"/><path fill="#324561" d="M24,46.927c-0.546,0-1.075-0.228-1.451-0.624l-6.274-6.615c-0.38-0.4-0.363-1.034,0.037-1.414	c0.401-0.38,1.035-0.363,1.414,0.038L24,44.927l6.274-6.615c0.379-0.401,1.014-0.418,1.414-0.038c0.4,0.38,0.417,1.013,0.037,1.414	l-6.274,6.615C25.075,46.7,24.546,46.927,24,46.927z"/><path fill="#324561" d="M39,32c-0.265,0-0.529-0.104-0.726-0.312c-0.38-0.4-0.363-1.034,0.037-1.414L44.927,24l-6.615-6.274	c-0.4-0.38-0.417-1.013-0.037-1.414c0.38-0.401,1.014-0.417,1.414-0.038l6.615,6.274c0.396,0.376,0.623,0.905,0.623,1.451	s-0.227,1.075-0.623,1.451l-6.615,6.274C39.495,31.909,39.247,32,39,32z"/></svg>