<svg xmlns="http://www.w3.org/2000/svg" width="100" height="100" baseProfile="basic" viewBox="0 0 48 48"><path fill="#12d9e3" d="M42,11H6c-2.757,0-5,2.243-5,5v16c0,2.757,2.243,5,5,5h36c2.757,0,5-2.243,5-5V16	C47,13.243,44.757,11,42,11z"/><path fill="#324561" d="M16.412,27.2c-0.111-0.276-0.164-0.514-0.164-0.804c0-0.573,0.362-0.937,0.922-0.937	c0.502,0,0.791,0.237,0.949,0.778c0.179,0.64,0.62,0.995,1.253,0.995c0.831,0,1.278-0.514,1.278-1.47v-5.577	c0-0.659,0.369-1.041,0.996-1.041c0.626,0,0.995,0.382,0.995,1.041v5.59c0,2.023-1.213,3.171-3.25,3.171	C17.961,28.947,16.86,28.295,16.412,27.2z"/><path fill="#324561" d="M24.171,27.121c-0.066-0.171-0.105-0.355-0.105-0.534c0-0.527,0.362-0.876,0.876-0.876	c0.409,0,0.68,0.158,0.917,0.58c0.31,0.725,1.055,1.055,1.964,1.055c1.068,0,1.793-0.515,1.793-1.213	c0-0.626-0.448-0.982-1.641-1.227l-1.009-0.197c-1.898-0.376-2.828-1.286-2.828-2.703c0-1.74,1.517-2.894,3.632-2.894	c1.74,0,3.053,0.731,3.475,1.971c0.046,0.132,0.072,0.271,0.072,0.441c0,0.475-0.343,0.798-0.851,0.798	c-0.448,0-0.726-0.178-0.949-0.587c-0.316-0.718-0.93-1.015-1.747-1.015c-0.982,0-1.635,0.462-1.635,1.16	c0,0.587,0.455,0.949,1.582,1.173l1.002,0.205c2.018,0.402,2.888,1.213,2.888,2.656c0,1.859-1.457,3.032-3.83,3.032	C25.812,28.947,24.553,28.163,24.171,27.121z"/></svg>