<svg xmlns="http://www.w3.org/2000/svg" width="100" height="100" baseProfile="basic" viewBox="0 0 48 48"><path fill="#6be3a2" d="M10,18H6c-1.654,0-3,1.346-3,3v6c0,1.654,1.346,3,3,3h4c1.654,0,3-1.346,3-3v-6	C13,19.346,11.654,18,10,18z"/><path fill="#6be3a2" d="M22,30h-4c-1.654,0-3,1.346-3,3v6c0,1.654,1.346,3,3,3h4c1.654,0,3-1.346,3-3v-6	C25,31.346,23.654,30,22,30z"/><path fill="#6be3a2" d="M22,6h-4c-1.654,0-3,1.346-3,3v6c0,1.654,1.346,3,3,3h4c1.654,0,3-1.346,3-3V9	C25,7.346,23.654,6,22,6z"/><path fill="#6be3a2" d="M40,1h-3c-1.654,0-3,1.346-3,3v4c0,1.654,1.346,3,3,3h3c1.654,0,3-1.346,3-3V4	C43,2.346,41.654,1,40,1z"/><path fill="#6be3a2" d="M40,13h-3c-1.654,0-3,1.346-3,3v4c0,1.654,1.346,3,3,3h3c1.654,0,3-1.346,3-3v-4	C43,14.346,41.654,13,40,13z"/><path fill="#6be3a2" d="M40,25h-3c-1.654,0-3,1.346-3,3v4c0,1.654,1.346,3,3,3h3c1.654,0,3-1.346,3-3v-4	C43,26.346,41.654,25,40,25z"/><path fill="#6be3a2" d="M40,37h-3c-1.654,0-3,1.346-3,3v4c0,1.654,1.346,3,3,3h3c1.654,0,3-1.346,3-3v-4	C43,38.346,41.654,37,40,37z"/><path fill="#324561" d="M8,19c-0.553,0-1-0.447-1-1v-2c0-2.757,2.243-5,5-5h3c0.553,0,1,0.447,1,1s-0.447,1-1,1h-3	c-1.654,0-3,1.346-3,3v2C9,18.553,8.553,19,8,19z"/><path fill="#324561" d="M26.838,13H25c-0.553,0-1-0.447-1-1s0.447-1,1-1h1.838c0.862,0,1.624-0.55,1.896-1.368l0.634-1.896	C29.913,6.1,31.438,5,33.162,5H34c0.553,0,1,0.447,1,1s-0.447,1-1,1h-0.838c-0.862,0-1.624,0.55-1.896,1.368l-0.634,1.896	C30.087,11.9,28.562,13,26.838,13z"/><path fill="#324561" d="M34,19h-0.838c-1.725,0-3.249-1.1-3.795-2.735l-0.632-1.896C28.462,13.55,27.7,13,26.838,13H25	c-0.553,0-1-0.447-1-1s0.447-1,1-1h1.838c1.725,0,3.249,1.1,3.795,2.735l0.632,1.896C31.538,16.45,32.3,17,33.162,17H34	c0.553,0,1,0.447,1,1S34.553,19,34,19z"/><path fill="#324561" d="M15,37h-3c-2.757,0-5-2.243-5-5v-2c0-0.553,0.447-1,1-1s1,0.447,1,1v2c0,1.654,1.346,3,3,3h3	c0.553,0,1,0.447,1,1S15.553,37,15,37z"/><path fill="#324561" d="M26.838,37H25c-0.553,0-1-0.447-1-1s0.447-1,1-1h1.838c0.862,0,1.624-0.55,1.896-1.368l0.634-1.896	C29.913,30.1,31.438,29,33.162,29H34c0.553,0,1,0.447,1,1s-0.447,1-1,1h-0.838c-0.862,0-1.624,0.55-1.896,1.368l-0.634,1.896	C30.087,35.9,28.562,37,26.838,37z"/><path fill="#324561" d="M34,43h-0.838c-1.725,0-3.249-1.1-3.795-2.735l-0.632-1.896C28.462,37.55,27.7,37,26.838,37H25	c-0.553,0-1-0.447-1-1s0.447-1,1-1h1.838c1.725,0,3.249,1.1,3.795,2.735l0.632,1.896C31.538,40.45,32.3,41,33.162,41H34	c0.553,0,1,0.447,1,1S34.553,43,34,43z"/></svg>