<svg xmlns="http://www.w3.org/2000/svg" width="100" height="100" baseProfile="basic" viewBox="0 0 48 48"><path fill="#fca66c" d="M44.622,8.218c-0.237-0.189-0.551-0.257-0.847-0.192L31.061,10.96L17.336,6.059	c-0.18-0.065-0.373-0.074-0.561-0.033l-13,3C3.321,9.13,3,9.534,3,10v29c0,0.305,0.139,0.593,0.378,0.782	c0.237,0.19,0.554,0.26,0.847,0.192l12.715-2.935l13.725,4.901C30.772,41.98,30.886,42,31,42c0.075,0,0.15-0.009,0.225-0.025l13-3	C44.679,38.87,45,38.466,45,38V9C45,8.695,44.861,8.407,44.622,8.218z"/><path fill="#324561" d="M16.571,34c-0.153,0-0.307-0.035-0.447-0.105l-1.714-0.857c-0.276-0.139-0.473-0.396-0.533-0.698	l-0.794-3.969l-1.764-1.638C11.12,26.548,11.005,26.29,11,26.019s0.101-0.533,0.293-0.726l0.906-0.906l-1.982-0.751	c-0.321-0.122-0.559-0.401-0.626-0.738l-0.696-3.469H8c-0.553,0-1-0.447-1-1v-0.857c0-0.307,0.141-0.597,0.382-0.786l2-1.571	C9.559,15.075,9.776,15,10,15h1.892l4.466-0.977c0.274-0.06,0.559-0.003,0.787,0.157l1.429,1c0.048,0.033,0.093,0.071,0.134,0.112	l1,1c0.193,0.193,0.299,0.457,0.293,0.73c-0.007,0.273-0.125,0.532-0.327,0.717l-1.571,1.429L15,22.271v0.52l2.671,0.668	c0.176,0.044,0.337,0.135,0.465,0.263l1.571,1.571c0.279,0.279,0.368,0.697,0.227,1.065l-0.714,1.857	c-0.051,0.131-0.128,0.25-0.227,0.349l-0.644,0.643l-0.798,3.989c-0.062,0.306-0.261,0.565-0.541,0.702	C16.872,33.966,16.722,34,16.571,34z M15.742,31.467l0.105,0.053l0.601-3.002c0.039-0.193,0.134-0.371,0.273-0.511l0.707-0.707	l0.404-1.052l-0.916-0.916l-2.268-0.567l-1.209,1.209l1.24,1.151c0.153,0.143,0.259,0.33,0.3,0.536L15.742,31.467z M11.443,21.961	L13,22.552v-0.694c0-0.266,0.105-0.52,0.293-0.707l3.429-3.429l0.83-0.756l-0.197-0.197l-0.998-0.698l-4.143,0.906	C12.144,16.992,12.072,17,12,17h-1.654l-0.55,0.432c0.44,0.036,0.811,0.36,0.898,0.8L11.443,21.961z M8,17.571h0.01H8z"/><path fill="#324561" d="M27,34c-0.263,0-0.519-0.104-0.707-0.293l-1.714-1.714c-0.14-0.14-0.234-0.317-0.273-0.511	l-0.788-3.937l-2.153-1.774c-0.314-0.258-0.44-0.682-0.318-1.069l0.714-2.286c0.033-0.109,0.086-0.211,0.154-0.303L23,20.667V18	c0-0.352,0.185-0.677,0.485-0.857l2.143-1.286c0.12-0.072,0.255-0.118,0.394-0.135l5.857-0.714c0.07-0.008,0.142-0.01,0.212-0.004	l7.857,0.714c0.422,0.038,0.774,0.339,0.878,0.75c0.104,0.411-0.062,0.843-0.414,1.078l-1.969,1.313l0.521,1.873	c0.092,0.332,0.007,0.689-0.227,0.943l-1.477,1.61l-0.795,1.59c-0.213,0.426-0.694,0.643-1.158,0.518l-1.234-0.337l-0.68,0.291	c-0.431,0.187-0.939,0.043-1.213-0.346l-0.47-0.672l-1.373,0.808l0.199,0.747c0.022,0.084,0.034,0.171,0.034,0.258v1.715	c0,0.155-0.036,0.309-0.105,0.447l-2.571,5.143c-0.144,0.287-0.417,0.488-0.734,0.54C27.106,33.996,27.053,34,27,34z M26.207,30.793	l0.519,0.519l1.846-3.69v-1.348l-0.469-1.756l-0.81-0.811c-0.391-0.391-0.391-1.023,0-1.414s1.023-0.391,1.414,0l0.935,0.935	l1.852-1.09c0.447-0.263,1.027-0.139,1.326,0.289l0.534,0.763l0.253-0.108c0.207-0.088,0.437-0.104,0.657-0.046l0.78,0.213	l0.49-0.981c0.042-0.083,0.095-0.16,0.157-0.229l1.196-1.305l-0.565-2.037c-0.115-0.416,0.05-0.859,0.409-1.1l0.215-0.144	l-4.931-0.447l-5.541,0.675L25,18.566V21c0,0.217-0.07,0.427-0.2,0.601l-1.183,1.576l-0.462,1.479l1.909,1.572	c0.178,0.146,0.3,0.35,0.345,0.575L26.207,30.793z"/><path fill="#324561" d="M38,33c-0.263,0-0.518-0.104-0.707-0.293l-1.178-1.178l-1.887,0.444	c-0.296,0.069-0.61-0.001-0.85-0.189C33.14,31.594,33,31.306,33,31v-3c0-0.462,0.316-0.863,0.766-0.972l4.143-1	c0.498-0.124,1.019,0.162,1.183,0.655l0.857,2.571c0.076,0.228,0.067,0.476-0.023,0.697l-1,2.429c-0.127,0.309-0.4,0.534-0.729,0.6	C38.131,32.993,38.065,33,38,33z M36.429,29.429c0.262,0,0.518,0.104,0.707,0.293l0.511,0.511l0.287-0.698l-0.449-1.347L35,28.787	v0.95l1.2-0.282C36.275,29.438,36.353,29.429,36.429,29.429z"/></svg>