<svg xmlns="http://www.w3.org/2000/svg"  viewBox="0 0 48 48" width="100px" height="100px" baseProfile="basic"><path fill="#6be3a2" d="M35,5H13c-2.757,0-5,2.243-5,5v31c0,2.757,2.243,5,5,5h22c2.757,0,5-2.243,5-5V10	C40,7.243,37.757,5,35,5z"/><path fill="#324561" d="M34,7h-7.77c-0.396,0-0.754-0.232-0.914-0.594s-0.093-0.784,0.172-1.077C25.818,4.965,26,4.492,26,4	c0-1.103-0.897-2-2-2s-2,0.897-2,2c0,0.492,0.182,0.965,0.512,1.329c0.265,0.293,0.332,0.716,0.172,1.077S22.165,7,21.77,7H14	c-0.553,0-1-0.447-1-1s0.447-1,1-1h6.127C20.043,4.676,20,4.341,20,4c0-2.206,1.794-4,4-4s4,1.794,4,4c0,0.341-0.043,0.676-0.127,1	H34c0.553,0,1,0.447,1,1S34.553,7,34,7z"/><path fill="#324561" d="M23,23h-9c-0.553,0-1-0.447-1-1s0.447-1,1-1h9c0.553,0,1,0.447,1,1S23.553,23,23,23z"/><path fill="#324561" d="M30,24c-0.256,0-0.512-0.098-0.707-0.293l-2-2c-0.391-0.391-0.391-1.023,0-1.414s1.023-0.391,1.414,0	L30,21.586l3.293-3.293c0.391-0.391,1.023-0.391,1.414,0s0.391,1.023,0,1.414l-4,4C30.512,23.902,30.256,24,30,24z"/><path fill="#324561" d="M23,34h-9c-0.553,0-1-0.447-1-1s0.447-1,1-1h9c0.553,0,1,0.447,1,1S23.553,34,23,34z"/><path fill="#324561" d="M30,35c-0.256,0-0.512-0.098-0.707-0.293l-2-2c-0.391-0.391-0.391-1.023,0-1.414s1.023-0.391,1.414,0	L30,32.586l3.293-3.293c0.391-0.391,1.023-0.391,1.414,0s0.391,1.023,0,1.414l-4,4C30.512,34.902,30.256,35,30,35z"/></svg>