<svg xmlns="http://www.w3.org/2000/svg" width="100" height="100" baseProfile="basic" viewBox="0 0 48 48"><path fill="#f2ca00" d="M35.69,41.51L32.86,43H8.16c-1.3,0-2.48-0.61-3.24-1.66c-0.76-1.06-0.96-2.37-0.55-3.6l0.25-0.78	C7.41,28.61,15.2,23,24,23c5.59,0,10.82,2.26,14.6,6.14C35.4,29.79,33,32.61,33,36C33,38.24,34.05,40.24,35.69,41.51z"/><path fill="#324561" d="M24,21c-4.963,0-9-4.486-9-10s4.037-10,9-10s9,4.486,9,10S28.963,21,24,21z M24,3	c-3.859,0-7,3.589-7,8s3.141,8,7,8s7-3.589,7-8S27.859,3,24,3z"/><path fill="#324561" d="M40,44c-4.411,0-8-3.589-8-8s3.589-8,8-8s8,3.589,8,8S44.411,44,40,44z M40,30c-3.309,0-6,2.691-6,6	s2.691,6,6,6s6-2.691,6-6S43.309,30,40,30z"/><path fill="#324561" d="M29,48c-0.256,0-0.512-0.098-0.707-0.293c-0.391-0.391-0.391-1.023,0-1.414l6-6	c0.391-0.391,1.023-0.391,1.414,0s0.391,1.023,0,1.414l-6,6C29.512,47.902,29.256,48,29,48z"/></svg>