<svg xmlns="http://www.w3.org/2000/svg" width="100" height="100" baseProfile="basic" viewBox="0 0 48 48"><path fill="#f2ca00" d="M24,6.272C10.767,6.272,0,14.225,0,24s10.767,17.728,24.042,17.728	c2.771-0.004,5.214-1.916,5.94-4.649l1.128-4.229c0.54-2.034,2.518-3.362,4.61-3.107l4.92,0.617c1.88,0.234,3.773-0.347,5.197-1.597	c1.365-1.198,2.153-2.908,2.162-4.698V24C48,14.225,37.233,6.272,24,6.272z M21.5,30c1.93,0,3.5,1.57,3.5,3.5S23.43,37,21.5,37	S18,35.43,18,33.5S19.57,30,21.5,30z"/><path fill="#324561" d="M30,19c-2.206,0-4-1.794-4-4s1.794-4,4-4s4,1.794,4,4S32.206,19,30,19z M30,13c-1.103,0-2,0.897-2,2	s0.897,2,2,2s2-0.897,2-2S31.103,13,30,13z"/><path fill="#324561" d="M39,26c-2.206,0-4-1.794-4-4s1.794-4,4-4s4,1.794,4,4S41.206,26,39,26z M39,20c-1.103,0-2,0.897-2,2	s0.897,2,2,2s2-0.897,2-2S40.103,20,39,20z"/><path fill="#324561" d="M18,19c-2.206,0-4-1.794-4-4s1.794-4,4-4s4,1.794,4,4S20.206,19,18,19z M18,13c-1.103,0-2,0.897-2,2	s0.897,2,2,2s2-0.897,2-2S19.103,13,18,13z"/><path fill="#324561" d="M9,26c-2.206,0-4-1.794-4-4s1.794-4,4-4s4,1.794,4,4S11.206,26,9,26z M9,20c-1.103,0-2,0.897-2,2	s0.897,2,2,2s2-0.897,2-2S10.103,20,9,20z"/></svg>