<svg xmlns="http://www.w3.org/2000/svg" width="100" height="100" baseProfile="basic" viewBox="0 0 48 48"><path fill="#fca66c" d="M14.74,31.362C13.316,30.471,11.678,30,10,30c-3.878,0-7.294,2.479-8.502,6.174l-0.287,0.89	c-0.306,0.921-0.156,1.9,0.413,2.689C2.187,40.534,3.098,41,4.06,41h7.57c0.306,0,0.595-0.14,0.784-0.379	c0.189-0.24,0.259-0.553,0.189-0.851c-0.123-0.521-0.101-1.058,0.067-1.562l0.417-1.292c0.298-0.893,0.687-1.73,1.154-2.492h-0.001	c0.032-0.052,0.06-0.106,0.083-0.163h0.001c0.225-0.546,0.479-1.07,0.755-1.559C15.344,32.236,15.194,31.646,14.74,31.362z"/><path fill="#fca66c" d="M46.792,37.073L46.5,36.17C45.294,32.479,41.878,30,38,30c-1.678,0-3.316,0.471-4.74,1.362	c-0.454,0.284-0.604,0.874-0.34,1.34c0.275,0.488,0.53,1.013,0.755,1.559h0.001c0.023,0.057,0.051,0.111,0.083,0.163h-0.001	c0.468,0.762,0.856,1.6,1.15,2.48l0.423,1.321c0.165,0.494,0.188,1.028,0.065,1.545c-0.069,0.298,0,0.61,0.189,0.851	C35.775,40.86,36.064,41,36.37,41h7.57c0.962,0,1.873-0.466,2.436-1.247C46.945,38.964,47.095,37.984,46.792,37.073z"/><path fill="#324561" d="M10,28c-2.757,0-5-2.243-5-5s2.243-5,5-5s5,2.243,5,5S12.757,28,10,28z M10,20c-1.654,0-3,1.346-3,3	s1.346,3,3,3s3-1.346,3-3S11.654,20,10,20z"/><path fill="#324561" d="M38,28c-2.757,0-5-2.243-5-5s2.243-5,5-5s5,2.243,5,5S40.757,28,38,28z M38,20c-1.654,0-3,1.346-3,3	s1.346,3,3,3s3-1.346,3-3S39.654,20,38,20z"/><path fill="#324561" d="M36,16c-2.757,0-5-2.243-5-5s2.243-5,5-5s5,2.243,5,5S38.757,16,36,16z M36,8c-1.654,0-3,1.346-3,3	s1.346,3,3,3s3-1.346,3-3S37.654,8,36,8z"/><path fill="#324561" d="M13,15c-2.757,0-5-2.243-5-5s2.243-5,5-5s5,2.243,5,5S15.757,15,13,15z M13,7c-1.654,0-3,1.346-3,3	s1.346,3,3,3s3-1.346,3-3S14.654,7,13,7z"/><path fill="#324561" d="M37.1,42c-0.13,0-0.261-0.025-0.388-0.078c-0.509-0.214-0.748-0.801-0.534-1.31	c0.361-0.858,0.396-1.794,0.102-2.705l-0.422-1.312c-0.345-1.049-0.826-2.05-1.43-2.97c-0.303-0.462-0.175-1.082,0.287-1.385	c0.461-0.303,1.082-0.174,1.385,0.287c0.7,1.067,1.259,2.228,1.66,3.45l0.423,1.315c0.438,1.352,0.381,2.806-0.161,4.094	C37.86,41.771,37.489,42,37.1,42z"/><path fill="#324561" d="M10.9,42c-0.39,0-0.761-0.229-0.922-0.612c-0.542-1.288-0.599-2.742-0.16-4.096l0.42-1.308	c0.403-1.229,0.962-2.389,1.662-3.456c0.305-0.461,0.925-0.59,1.385-0.287c0.462,0.303,0.59,0.923,0.287,1.385	c-0.604,0.92-1.085,1.921-1.432,2.976l-0.419,1.304c-0.296,0.913-0.261,1.849,0.101,2.707c0.214,0.509-0.025,1.096-0.534,1.31	C11.161,41.975,11.03,42,10.9,42z"/><path fill="#fca66c" d="M36.282,37.905l-0.424-1.302C34.179,31.458,29.414,28,24,28s-10.179,3.458-11.858,8.604l-0.423,1.3	c-0.392,1.198-0.191,2.471,0.549,3.491c0.74,1.02,1.887,1.604,3.147,1.604h17.17c1.261,0,2.407-0.585,3.147-1.604	C36.473,40.375,36.673,39.103,36.282,37.905z"/><path fill="#324561" d="M24,25c-3.584,0-6.5-2.916-6.5-6.5S20.416,12,24,12s6.5,2.916,6.5,6.5S27.584,25,24,25z M24,14	c-2.481,0-4.5,2.019-4.5,4.5S21.519,23,24,23s4.5-2.019,4.5-4.5S26.481,14,24,14z"/></svg>