<svg xmlns="http://www.w3.org/2000/svg"  viewBox="0 0 48 48" width="100px" height="100px" baseProfile="basic"><path fill="#324561" d="M17.28,30.88c-0.278,0-0.555-0.115-0.753-0.342c-0.363-0.415-0.321-1.047,0.095-1.411l6.179-5.406	l-4.724-11.336c-0.213-0.51,0.028-1.096,0.538-1.308c0.509-0.213,1.095,0.028,1.308,0.538l5,12c0.165,0.396,0.059,0.854-0.265,1.138	l-6.72,5.88C17.749,30.799,17.515,30.88,17.28,30.88z"/><circle cx="24" cy="24" r="2" fill="#324561"/><path fill="#6be3a2" d="M22.856,44.969c11.541,0.615,21.217-8.146,22.081-19.337C45.005,24.755,44.315,24,43.435,24h-1.002	c-0.778,0-1.426,0.596-1.488,1.372c-0.751,9.362-9.121,16.609-18.888,15.519c-7.786-0.868-14.08-7.162-14.948-14.948	C5.967,15.703,13.986,7,24,7c4.943,0,9.634,2.147,12.869,5.892L39,12l0.896-1.723C35.9,5.652,30.106,3,24,3	C12.043,3,2.387,13.046,3.03,25.141C3.594,35.73,12.267,44.405,22.856,44.969z"/><path fill="#324561" d="M39.004,13.806c-0.022,0-0.045-0.001-0.067-0.002l-7.964-0.296c-0.552-0.021-0.982-0.484-0.962-1.036	s0.496-1.023,1.036-0.962l7.725,0.287l-1.094-7.652c-0.078-0.547,0.302-1.054,0.849-1.132c0.545-0.078,1.054,0.302,1.132,0.849	l1.127,7.89c0.075,0.53-0.087,1.062-0.445,1.459C39.997,13.591,39.514,13.806,39.004,13.806z M38.805,12.034h0.01H38.805z"/></svg>