<svg xmlns="http://www.w3.org/2000/svg" width="100" height="100" baseProfile="basic" viewBox="0 0 48 48"><path fill="#f2ca00" d="M10.899,27.815c0-2.216,1.797-4.013,4.013-4.013s4.013,1.797,4.013,4.013s-1.797,4.013-4.013,4.013"/><circle cx="4.479" cy="31.827" r="3.21" fill="#f2ca00"/><path fill="#f2ca00" d="M10.899,18.184c0,1.329-1.079,2.408-2.408,2.408s-0.803-1.079-0.803-2.408s1.079-2.408,2.408-2.408	S10.899,16.856,10.899,18.184z"/><circle cx="29.357" cy="34.235" r="5.618" fill="#f2ca00"/><path fill="#f2ca00" d="M29.357,22.197H45c1.105,0,2,0.895,2,2v13.656c0,1.105-0.895,2-2,2H29.357V22.197z"/><path fill="#f2ca00" d="M16.5,24.13l6.35,1.73c1.48,0.4,3.05-0.22,3.87-1.51c0.25-0.4,0.5-0.77,0.71-1.07	c0.77-1.08-1.2-2.34-1.95-1.08c-0.37,0.61-0.61,1-0.76,1.25c-0.17,0.28-0.49,0.4-0.8,0.33l-3.76-0.9l-6.17-1.61	c-3.23,0.45-5.72,3.2-5.72,6.54c0,0.97,0.22,1.89,0.6,2.72l-1.55,2.8l-5.91-2.44l6.38-13.4l1.69-1.63l12.627-3.141	c0.794-0.197,1.634-0.062,2.326,0.375L41.39,23.8L29.92,37.56l-2.84,1.81"/><path fill="#f2ca00" d="M24.433,13.094c-0.692-0.437-1.532-0.572-2.326-0.375L9.48,15.86l-1.69,1.63l-6.38,13.4l5.91,2.44	l3.913-7.07c-0.779,1.842-0.098,4.013,1.681,5.034c0.01,0.006,0.021,0.008,0.031,0.014c0.318,0.182,13.997,7.992,14.135,8.061	l2.84-1.81L41.39,23.8L24.433,13.094z"/><path fill="#324561" d="M23.771,26.983c-0.392,0-0.788-0.051-1.182-0.158l-7.011-1.93c-1.277-0.309-2.549,0.244-3.217,1.408	c-0.275,0.478-0.886,0.644-1.365,0.369c-0.479-0.275-0.645-0.886-0.369-1.365c1.104-1.923,3.296-2.868,5.45-2.349l7.038,1.937	c1.039,0.283,2.177-0.162,2.761-1.082c0.296-0.466,0.914-0.604,1.38-0.308c0.466,0.296,0.604,0.914,0.308,1.38	C26.719,26.217,25.283,26.983,23.771,26.983z"/><path fill="#324561" d="M27.555,7.108l-3.101-1.812l0.772-1.302c0.501-0.855,1.6-1.144,2.457-0.644l0,0	c0.855,0.501,1.144,1.6,0.644,2.457L27.555,7.108z"/><path fill="#324561" d="M28.792,7.874c-0.19-0.673-0.632-1.23-1.244-1.568l-2.61-1.442c-1.246-0.688-2.827-0.237-3.527,1.008	L6.712,32.364c0,0.001,0,0.001,0,0.002c0,0.001-0.001,0.001-0.001,0.002L4.749,35.93c-0.683,1.239-0.556,2.629-0.408,4.239	c0.074,0.811,0.158,1.729,0.158,2.767c0,0.027,0.013,0.05,0.015,0.076c0.005,0.066,0.021,0.128,0.039,0.193	c0.019,0.067,0.04,0.13,0.072,0.19c0.012,0.023,0.012,0.048,0.026,0.07c0.033,0.053,0.075,0.097,0.116,0.141	c0.013,0.014,0.022,0.031,0.036,0.044c0.082,0.08,0.176,0.14,0.277,0.186c0.024,0.011,0.048,0.019,0.073,0.029	c0.111,0.041,0.225,0.069,0.344,0.069c0.001,0,0.001,0,0.002,0c0,0,0,0,0,0s0,0,0.001,0c0.116,0,0.231-0.028,0.343-0.069	c0.032-0.012,0.062-0.026,0.092-0.041c0.031-0.015,0.064-0.023,0.094-0.042c0.88-0.55,1.704-0.966,2.431-1.333	c1.443-0.728,2.689-1.356,3.378-2.593c0-0.001,0-0.002,0.001-0.003c0,0,0,0,0,0l2.395-4.335c0.268-0.483,0.092-1.092-0.392-1.359	c-0.485-0.268-1.093-0.091-1.358,0.392l-2.392,4.33c0,0.001-0.001,0.001-0.002,0.002c-0.39,0.7-1.288,1.153-2.531,1.78	c-0.352,0.178-0.728,0.369-1.122,0.579c-0.031-0.445-0.068-0.865-0.104-1.258c-0.127-1.387-0.219-2.389,0.169-3.092l1.961-3.564	c0,0,0,0,0,0L23.156,6.847c0.161-0.287,0.525-0.393,0.814-0.232l2.61,1.442c0.141,0.078,0.243,0.207,0.287,0.362	c0.044,0.156,0.023,0.319-0.056,0.459l-6.609,11.663c-0.272,0.48-0.104,1.091,0.377,1.363c0.481,0.273,1.091,0.104,1.363-0.377	l6.609-11.664C28.897,9.254,28.982,8.547,28.792,7.874z"/></svg>