<?xml version="1.0"?><svg fill="#000000" xmlns="http://www.w3.org/2000/svg"  viewBox="0 0 30 30" width="100px" height="100px">    <path d="M 10 5 C 6.134 5 3 8.134 3 12 C 3 13.274 3.5503437 14.679563 4.4023438 16.101562 C 4.5923437 16.041563 4.791 16 5 16 C 6.105 16 7 16.895 7 18 C 8.105 18 9 18.895 9 20 C 10.105 20 11 20.895 11 22 C 12.105 22 13 22.895 13 24 C 13 24.387 12.885312 24.744781 12.695312 25.050781 C 12.762313 25.106781 12.834437 25.168656 12.898438 25.222656 C 14.119438 26.238656 15.880563 26.238656 17.101562 25.222656 C 19.056562 23.596656 21.980531 20.969266 24.144531 18.197266 C 24.795531 17.363266 24.654562 16.160656 23.851562 15.472656 C 22.577562 14.380656 20.746859 12.812891 19.755859 11.962891 C 19.357859 11.623891 18.766484 11.648578 18.396484 12.017578 L 16.785156 13.628906 C 15.493156 14.920906 13.444922 15.222797 11.919922 14.216797 C 9.8229219 12.833797 9.6139687 9.9709688 11.292969 8.2929688 L 13.585938 5.9980469 C 12.536938 5.3680469 11.313 5 10 5 z M 20 5 C 18.688 5 17.465969 5.3680938 16.417969 5.9960938 L 12.707031 9.7070312 C 11.922031 10.492031 12.000359 11.818141 12.943359 12.494141 C 13.684359 13.025141 14.721234 12.865703 15.365234 12.220703 L 17.638672 9.9472656 C 18.377672 9.2082656 19.559516 9.16375 20.353516 9.84375 L 25.160156 13.964844 C 25.718156 14.443844 26.586203 14.172844 26.783203 13.464844 C 26.922203 12.961844 27 12.472 27 12 C 27 8.134 23.866 5 20 5 z"/></svg>