<svg xmlns="http://www.w3.org/2000/svg" width="100" height="100" fill="#000" viewBox="0 0 26 26"><path d="M 13 0 C 11.894531 0 11 0.894531 11 2 C 11 3.105469 11.894531 4 13 4 C 14.105469 4 15 3.105469 15 2 C 15 0.894531 14.105469 0 13 0 Z M 18.15625 1.25 C 17.863281 1.265625 17.523438 1.410156 17.28125 1.8125 C 16.59375 2.964844 17.671875 3.664063 18 3.84375 C 21.242188 5.621094 23.46875 9.046875 23.46875 13 C 23.46875 18.769531 18.769531 23.46875 13 23.46875 C 7.230469 23.46875 2.53125 18.769531 2.53125 13 C 2.53125 11.675781 2.796875 10.414063 3.25 9.25 C 3.308594 9.097656 3.867188 8.078125 2.75 7.375 C 1.984375 6.894531 1.242188 7.4375 1.09375 7.78125 C 0.390625 9.378906 0 11.144531 0 13 C 0 20.179688 5.820313 26 13 26 C 20.179688 26 26 20.179688 26 13 C 26 7.886719 23.042969 3.460938 18.75 1.34375 C 18.703125 1.320313 18.449219 1.234375 18.15625 1.25 Z M 3.375 3.34375 C 3.0625 3.65625 11.101563 13.820313 11.34375 14.125 C 11.351563 14.136719 11.367188 14.144531 11.375 14.15625 C 11.378906 14.160156 11.46875 14.28125 11.46875 14.28125 C 11.835938 14.722656 12.382813 15 13 15 C 14.105469 15 14.996094 14.101563 15 13 C 15 12.382813 14.71875 11.835938 14.28125 11.46875 C 14.28125 11.46875 3.695313 3.023438 3.375 3.34375 Z"/></svg>