<svg xmlns="http://www.w3.org/2000/svg" width="100" height="100" fill="#000" viewBox="0 0 26 26"><path d="M 8 0 C 5.800781 0 4 1.800781 4 4 L 4 11 L 1 11 C 0.398438 11 0 11.5 0 12 L 0 18 C 0 18.5 0.398438 19 1 19 L 4 19 L 4 22 C 4 24.199219 5.800781 26 8 26 L 20 26 C 22.199219 26 24 24.199219 24 22 L 24 8 C 24 6.898438 23.011719 5.886719 21.3125 4.1875 C 21.011719 3.988281 20.800781 3.699219 20.5 3.5 C 20.300781 3.199219 20.011719 2.988281 19.8125 2.6875 C 18.113281 0.988281 17.101563 0 16 0 Z M 8 2 L 15.3125 2 C 16.011719 2.199219 16 3.101563 16 4 L 16 7 C 16 7.601563 16.398438 8 17 8 L 20 8 C 21 8 22 8 22 9 L 22 22 C 22 23.101563 21.101563 24 20 24 L 8 24 C 6.898438 24 6 23.101563 6 22 L 6 19 L 17 19 C 17.601563 19 18 18.5 18 18 L 18 12 C 18 11.5 17.601563 11 17 11 L 6 11 L 6 4 C 6 2.898438 6.898438 2 8 2 Z M 4.90625 11.90625 C 5.605469 11.90625 6.113281 11.988281 6.3125 12.1875 L 6.40625 12.3125 L 6.09375 13.3125 C 6.09375 13.3125 6.101563 13.40625 6 13.40625 L 5.90625 13.40625 C 5.707031 13.304688 5.40625 13.1875 4.90625 13.1875 C 3.90625 13.1875 3.3125 13.804688 3.3125 14.90625 C 3.3125 15.90625 3.90625 16.5 4.90625 16.5 C 5.304688 16.5 5.605469 16.414063 5.90625 16.3125 L 6 16.3125 L 6 16.40625 L 6.1875 17.40625 C 6.1875 17.507813 6.195313 17.5 6.09375 17.5 C 5.792969 17.601563 5.289063 17.6875 4.6875 17.6875 C 2.886719 17.6875 1.8125 16.605469 1.8125 14.90625 C 1.8125 13.105469 3.007813 11.90625 4.90625 11.90625 Z M 9.09375 11.90625 C 9.695313 11.90625 10.101563 11.988281 10.5 12.1875 C 10.601563 12.1875 10.59375 12.3125 10.59375 12.3125 L 10.3125 13.3125 C 10.3125 13.3125 10.289063 13.40625 10.1875 13.40625 L 10.09375 13.40625 C 9.894531 13.304688 9.5 13.1875 9 13.1875 C 8.5 13.1875 8.3125 13.394531 8.3125 13.59375 C 8.3125 13.792969 8.488281 13.988281 9.1875 14.1875 C 10.1875 14.585938 10.6875 15.105469 10.6875 15.90625 C 10.886719 16.804688 10.292969 17.6875 8.59375 17.6875 C 7.894531 17.6875 7.300781 17.511719 7 17.3125 L 6.90625 17.1875 L 7.09375 16.1875 C 7.09375 16.1875 7.085938 16.09375 7.1875 16.09375 L 7.3125 16.09375 C 7.613281 16.292969 8.09375 16.40625 8.59375 16.40625 C 8.792969 16.40625 9.3125 16.40625 9.3125 15.90625 C 9.3125 15.707031 9.199219 15.511719 8.5 15.3125 C 7.5 14.914063 6.90625 14.292969 6.90625 13.59375 C 6.90625 12.59375 7.792969 11.90625 9.09375 11.90625 Z M 13.8125 11.90625 C 14.414063 11.90625 14.789063 11.988281 15.1875 12.1875 C 15.289063 12.1875 15.3125 12.3125 15.3125 12.3125 L 15 13.3125 C 15 13.3125 15.007813 13.40625 14.90625 13.40625 L 14.8125 13.40625 C 14.613281 13.304688 14.1875 13.1875 13.6875 13.1875 C 13.1875 13.1875 13 13.394531 13 13.59375 C 13 13.792969 13.207031 13.988281 13.90625 14.1875 C 14.90625 14.585938 15.40625 15.105469 15.40625 15.90625 C 15.605469 16.804688 15.011719 17.6875 13.3125 17.6875 C 12.613281 17.6875 11.988281 17.511719 11.6875 17.3125 L 11.59375 17.1875 L 11.8125 16.1875 C 11.8125 16.1875 11.804688 16.09375 11.90625 16.09375 L 12 16.09375 C 12.300781 16.292969 12.8125 16.40625 13.3125 16.40625 C 13.511719 16.40625 14 16.40625 14 15.90625 C 14 15.707031 13.886719 15.511719 13.1875 15.3125 C 12.1875 14.914063 11.59375 14.292969 11.59375 13.59375 C 11.59375 12.59375 12.511719 11.90625 13.8125 11.90625 Z"/></svg>