<svg fill="#000000" xmlns="http://www.w3.org/2000/svg"  viewBox="0 0 26 26" width="100px" height="100px"><path d="M 14.5 1 C 13.121094 1 12 2.121094 12 3.5 C 12 4.878906 13.121094 6 14.5 6 C 15.878906 6 17 4.878906 17 3.5 C 17 2.121094 15.878906 1 14.5 1 Z M 13 7 C 11.898438 7 11 7.898438 11 9 L 11 17 L 13 17 L 14.3125 15.59375 L 13 14.6875 C 12.578125 14.351563 12.535156 13.820313 12.59375 13.25 C 12.769531 13.542969 13.042969 13.796875 13.3125 14 L 16.3125 15.8125 C 16.511719 15.914063 16.613281 15.90625 16.8125 15.90625 C 17.113281 15.90625 17.488281 15.707031 17.6875 15.40625 C 17.988281 15.007813 17.8125 14.394531 17.3125 14.09375 L 14.3125 12.3125 L 13.40625 8.9375 L 15 12.1875 L 16.6875 13 L 18 13 L 18 10.3125 L 20.40625 13 L 23 13 L 18.59375 7.6875 C 18.195313 7.289063 17.695313 7 17.09375 7 Z M 18.1875 14 C 18.585938 14.5 18.8125 15.398438 18.3125 16 C 18.011719 16.398438 17.5 16.6875 17 16.6875 C 16.398438 16.6875 15 16 15 16 L 13.15625 18 L 7 18 C 5.898438 18 5 18.898438 5 20 C 5 21.101563 5.898438 22 7 22 L 14 22 C 14.601563 22 15 21.601563 15 21 C 15 20.398438 14.601563 20 14 20 L 8 19.40625 L 14 19.5 C 15.101563 19.5 16 19.898438 16 21 C 16 21.398438 15.886719 21.699219 15.6875 22 L 24.6875 22 C 25.386719 22 26 21.386719 26 20.6875 C 26 19.988281 25.511719 19.507813 24.8125 19.40625 L 16.4375 18.9375 L 18.09375 16.6875 L 22.5 16.40625 C 23.101563 16.40625 23.6875 15.789063 23.6875 15.1875 C 23.6875 14.585938 23.105469 14 22.40625 14 Z M 2.5 16 C 1.121094 16 0 17.121094 0 18.5 C 0 19.878906 1.121094 21 2.5 21 C 3.878906 21 5 19.878906 5 18.5 C 5 17.121094 3.878906 16 2.5 16 Z M 1 22 C 0.398438 22 0 22.5 0 23 L 0 25 L 26 25 L 26 23 L 5 23 L 4.3125 22.3125 C 4.113281 22.113281 3.894531 22 3.59375 22 Z"/></svg>