<svg xmlns="http://www.w3.org/2000/svg" width="100" height="100" fill="#000" viewBox="0 0 24 24"><path d="M 8.96875 3 C 8.852375 3.003375 8.7384063 3.0263125 8.6289062 3.0703125 L 3.6289062 5.0703125 C 3.2489063 5.2223125 3 5.591 3 6 L 3 20 C 3 20.708 3.7140937 21.192688 4.3710938 20.929688 L 9.03125 19.064453 L 14.681641 20.947266 L 14.683594 20.949219 C 14.907594 21.024219 15.151094 21.017688 15.371094 20.929688 L 15.892578 20.720703 L 13.677734 18.505859 L 9 16.945312 L 9 5.078125 L 9.03125 5.0644531 L 15 7.0546875 L 15 13 L 17 13 C 17.53 13 18.039062 13.210937 18.414062 13.585938 L 21 16.171875 L 21 10.585938 L 21 4.0019531 C 21 3.2939531 20.285906 2.8092656 19.628906 3.0722656 L 14.96875 4.9355469 L 12.003906 3.9472656 L 12.003906 3.9453125 L 9.3144531 3.0507812 C 9.2024531 3.0132812 9.085125 2.996625 8.96875 3 z M 15 15 L 15 17 L 20.146484 22.146484 L 22.146484 20.146484 L 17 15 L 15 15 z M 22.853516 20.853516 L 20.853516 22.853516 L 21.853516 23.853516 C 22.048516 24.048516 22.365547 24.048516 22.560547 23.853516 L 23.853516 22.560547 C 24.048516 22.364547 24.048516 22.048516 23.853516 21.853516 L 22.853516 20.853516 z"/></svg>