<svg xmlns="http://www.w3.org/2000/svg" width="100" height="100" fill="#000" viewBox="0 0 50 50"><path d="M 26 2 C 22.132813 2 19 5.132813 19 9 C 19 14.980469 32 24 32 24 C 32 24 45 14.933594 45 9 C 45 5.132813 41.867188 2 38 2 C 35.449219 2 33.222656 3.367188 32 5.40625 C 30.777344 3.367188 28.550781 2 26 2 Z M 46.03125 27.03125 C 45.308594 27.078125 44.605469 27.394531 44.0625 27.9375 L 34 38 L 24 38 L 22 36 L 29.6875 34.46875 C 30.808594 34.246094 31.730469 33.40625 31.9375 32.28125 C 32.257813 30.535156 30.9375 29 29.25 29 L 15.3125 29 C 13.191406 29 11.15625 29.84375 9.65625 31.34375 L 1 40 L 10 49 L 13.40625 45.59375 C 13.78125 45.21875 14.28125 45 14.8125 45 L 33.34375 45 C 34.40625 45 35.40625 44.5625 36.15625 43.8125 L 48.15625 31.8125 C 49.296875 30.671875 49.277344 28.8125 48.0625 27.71875 C 47.492188 27.207031 46.753906 26.984375 46.03125 27.03125 Z"/></svg>