<svg fill="#000000" xmlns="http://www.w3.org/2000/svg"  viewBox="0 0 24 24" width="100px" height="100px"><path d="M 19.09375 2 C 18.441406 2 16.15625 2.226563 16.15625 5 L 18.25 5 C 18.25 4.085938 18.746094 3.75 19.09375 3.75 C 19.625 3.75 19.90625 4.175781 19.90625 5 C 19.90625 6.726563 17.914063 6.5625 18.03125 9.59375 L 19.875 9.59375 C 19.769531 7.261719 22 7.359375 22 4.90625 C 22 4.253906 21.894531 2 19.09375 2 Z M 10 6 C 7.789063 6 6 7.789063 6 10 C 6 12.210938 7.789063 14 10 14 C 12.210938 14 14 12.210938 14 10 C 14 7.789063 12.210938 6 10 6 Z M 19 10.71875 C 18.046875 10.71875 17.84375 11.535156 17.84375 11.875 C 17.84375 12.214844 18.003906 13 19 13 C 19.996094 13 20.125 12.191406 20.125 11.875 C 20.125 11.558594 19.953125 10.71875 19 10.71875 Z M 10 16 C 3.921875 16 2 20 2 20 L 2 22 L 18 22 L 18 20 C 18 20 16.078125 16 10 16 Z"/></svg>