<svg fill="#000000" xmlns="http://www.w3.org/2000/svg"  viewBox="0 0 32 32" width="100px" height="100px"><path d="M 28 4.46875 L 26.59375 5.09375 L 19.96875 7.9375 L 12.34375 5.0625 L 11.96875 4.9375 L 11.59375 5.09375 L 4.59375 8.09375 L 4 8.34375 L 4 27.53125 L 5.40625 26.90625 L 12.03125 24.0625 L 19.65625 26.9375 L 20.03125 27.0625 L 20.40625 26.90625 L 27.40625 23.90625 L 28 23.65625 Z M 12.03125 7.0625 L 19.65625 9.9375 L 20.03125 10.0625 L 20.40625 9.90625 L 26 7.5 L 26 22.34375 L 19.96875 24.9375 L 12.34375 22.0625 L 11.96875 21.9375 L 11.59375 22.09375 L 6 24.5 L 6 9.65625 Z M 11.65625 10.21875 L 9.90625 10.53125 L 7.75 12.03125 L 7.71875 14.71875 L 8.34375 15.1875 L 8.34375 16.125 L 8 17.65625 L 8.875 18.1875 L 9.15625 21 L 9.90625 20.3125 L 10.25 17.53125 L 11.21875 16.34375 L 11.125 15.28125 L 10 14.625 L 9.15625 14.9375 L 8.8125 14.28125 L 9.625 13.21875 L 10.96875 12.96875 L 10.78125 12.21875 L 10.15625 11.8125 L 10.5625 11.375 L 11.53125 11.65625 Z M 14.65625 10.65625 L 13.78125 11.5 L 13.625 12.84375 L 15.1875 12.78125 L 13.96875 14.53125 L 14.03125 15.875 L 15.25 16.25 L 16.21875 17.4375 L 16.21875 20.75 L 17.0625 21.6875 L 18.625 18.5 L 18.96875 17.0625 L 18.84375 15.6875 L 20.0625 16.125 L 20.5625 16.90625 L 21.6875 20.6875 L 22.5625 20.34375 L 23.25 18.125 L 23.84375 16.5 L 24.0625 14.0625 L 23.28125 13.71875 L 23.125 12.15625 L 21.0625 13.28125 L 20.34375 13.84375 L 19.90625 12.9375 L 17.84375 11.71875 L 16.9375 11.78125 Z"/></svg>