<svg xmlns="http://www.w3.org/2000/svg" width="100" height="100" fill="#000" viewBox="0 0 50 50"><path d="M 25 0 C 23.152344 0 21.640625 1.289063 21.1875 3 L 9 3 C 7.347656 3 6 4.347656 6 6 L 6 45 C 6 46.652344 7.347656 48 9 48 L 41 48 C 42.652344 48 44 46.652344 44 45 L 44 6 C 44 4.347656 42.652344 3 41 3 L 33.0625 3 C 33.042969 3 33.019531 3 33 3 L 28.8125 3 C 28.359375 1.289063 26.847656 0 25 0 Z M 25 2 C 26.117188 2 27 2.882813 27 4 C 27 4.550781 27.449219 5 28 5 L 32 5 L 32 8 L 18 8 L 18 5 L 22 5 C 22.550781 5 23 4.550781 23 4 C 23 2.882813 23.882813 2 25 2 Z M 35.8125 17.03125 C 36.0625 16.980469 36.332031 17.003906 36.5625 17.15625 C 37.023438 17.460938 37.148438 18.101563 36.84375 18.5625 L 32.84375 24.5625 C 32.8125 24.609375 32.753906 24.648438 32.71875 24.6875 C 32.707031 24.699219 32.730469 24.707031 32.71875 24.71875 C 32.714844 24.722656 32.691406 24.714844 32.6875 24.71875 C 32.601563 24.800781 32.511719 24.859375 32.40625 24.90625 C 32.382813 24.917969 32.367188 24.929688 32.34375 24.9375 C 32.238281 24.976563 32.113281 25 32 25 C 31.886719 25 31.765625 24.976563 31.65625 24.9375 C 31.625 24.925781 31.59375 24.890625 31.5625 24.875 C 31.523438 24.855469 31.476563 24.871094 31.4375 24.84375 C 31.410156 24.824219 31.402344 24.773438 31.375 24.75 C 31.347656 24.730469 31.304688 24.742188 31.28125 24.71875 L 28.28125 21.71875 C 27.890625 21.328125 27.890625 20.671875 28.28125 20.28125 C 28.671875 19.890625 29.328125 19.890625 29.71875 20.28125 L 31.84375 22.4375 L 35.15625 17.4375 C 35.308594 17.207031 35.5625 17.082031 35.8125 17.03125 Z M 14 20 L 24 20 C 24.554688 20 25 20.449219 25 21 C 25 21.550781 24.554688 22 24 22 L 14 22 C 13.445313 22 13 21.550781 13 21 C 13 20.449219 13.445313 20 14 20 Z M 35.8125 30.03125 C 36.0625 29.980469 36.332031 30.003906 36.5625 30.15625 C 37.023438 30.460938 37.148438 31.101563 36.84375 31.5625 L 32.84375 37.5625 C 32.8125 37.609375 32.753906 37.648438 32.71875 37.6875 C 32.707031 37.699219 32.730469 37.707031 32.71875 37.71875 C 32.714844 37.722656 32.691406 37.714844 32.6875 37.71875 C 32.601563 37.800781 32.511719 37.859375 32.40625 37.90625 C 32.382813 37.917969 32.367188 37.929688 32.34375 37.9375 C 32.238281 37.976563 32.113281 38 32 38 C 31.886719 38 31.765625 37.976563 31.65625 37.9375 C 31.625 37.925781 31.59375 37.890625 31.5625 37.875 C 31.523438 37.855469 31.476563 37.871094 31.4375 37.84375 C 31.410156 37.824219 31.402344 37.773438 31.375 37.75 C 31.347656 37.730469 31.304688 37.742188 31.28125 37.71875 L 28.28125 34.71875 C 27.890625 34.328125 27.890625 33.671875 28.28125 33.28125 C 28.671875 32.890625 29.328125 32.890625 29.71875 33.28125 L 31.84375 35.4375 L 35.15625 30.4375 C 35.308594 30.207031 35.5625 30.082031 35.8125 30.03125 Z M 14 33 L 24 33 C 24.554688 33 25 33.449219 25 34 C 25 34.550781 24.554688 35 24 35 L 14 35 C 13.445313 35 13 34.550781 13 34 C 13 33.449219 13.445313 33 14 33 Z"/></svg>