<svg xmlns="http://www.w3.org/2000/svg" width="100" height="100" fill="#000" viewBox="0 0 26 26"><path d="M 13.898438 0 C 7.699219 0 2 3.898438 2 12.300781 C 2 19.101563 7.199219 26 14.5 26 C 17.5 26 19.898438 23.5 19.898438 20.5 C 19.898438 19.699219 19.699219 18.898438 19.398438 18.101563 C 17.800781 13.898438 25 15.101563 24.898438 7.5 C 25 5.199219 22.300781 0 13.898438 0 Z M 14 2 C 15.101563 2 16 3.101563 16 4.5 C 16 5.898438 15.101563 7 14 7 C 12.898438 7 12 5.898438 12 4.5 C 12 3.101563 12.898438 2 14 2 Z M 7 17 C 5.898438 17 5 15.898438 5 14.5 C 5 13.101563 5.898438 12 7 12 C 8.101563 12 9 13.101563 9 14.5 C 9 15.898438 8.101563 17 7 17 Z M 8 10 C 6.898438 10 6 8.898438 6 7.5 C 6 6.101563 6.898438 5 8 5 C 9.101563 5 10 6.101563 10 7.5 C 10 8.898438 9.101563 10 8 10 Z M 14.5 23 C 13.101563 23 12 21.898438 12 20.5 C 12 19.101563 13.101563 18 14.5 18 C 15.898438 18 17 19.101563 17 20.5 C 17 21.898438 15.898438 23 14.5 23 Z M 20 10 C 18.898438 10 18 8.898438 18 7.5 C 18 6.101563 18.898438 5 20 5 C 21.101563 5 22 6.101563 22 7.5 C 22 8.898438 21.101563 10 20 10 Z"/></svg>