<svg xmlns="http://www.w3.org/2000/svg" width="100" height="100" fill="#000" viewBox="0 0 50 50"><path d="M 26.273438 4.445313 C 26.148438 4.457031 26.027344 4.476563 25.902344 4.5 C 24.902344 4.699219 23.800781 5.5 22.800781 6.5 L 27.597656 9.5 C 28.199219 7.5 28.601563 5.5 27.300781 4.699219 C 27 4.472656 26.644531 4.417969 26.273438 4.445313 Z M 21.402344 8 C 20.199219 9.5 17.5 13 14.699219 17.402344 C 13.800781 18.800781 12.898438 20.402344 12 21.902344 C 12 22.800781 11.902344 23.601563 11.800781 24.402344 C 11.5 26.300781 11 27.898438 10.699219 28.5 C 10.300781 29.601563 9.699219 30.398438 9.101563 31 L 12.902344 33.402344 C 13.5 32.601563 14.5 31.199219 15.699219 29.597656 L 15.097656 29.199219 C 12.800781 28 11.699219 25.300781 12.597656 22.800781 C 13.300781 20.800781 15.300781 19.5 17.402344 19.5 C 17.800781 19.5 18.199219 19.597656 18.699219 19.699219 L 21.800781 20.5 C 24.199219 16.5 26 12.898438 26.800781 11.199219 Z M 16.902344 10.800781 L 10 11.800781 C 9.300781 11.902344 8.800781 12.300781 8.5 12.902344 L 2.898438 25.5 C 2.699219 26 2.5 26.699219 2.601563 27.300781 C 2.699219 28.402344 3.199219 29.398438 4 30.097656 C 5.101563 30.800781 6.398438 30.601563 7 30.300781 C 8.398438 29.699219 8.898438 27.800781 9 27.300781 C 9.300781 26.199219 10.300781 23.199219 9.898438 20.300781 L 10.800781 20.199219 C 11.5 18.898438 12.300781 17.699219 13 16.5 C 14.398438 14.300781 15.699219 12.402344 16.902344 10.800781 Z M 28.5 12.597656 C 27.800781 14.097656 26.101563 17.5 23.800781 21.300781 L 26.402344 22 L 28.402344 22.597656 L 27.300781 24.199219 L 18.199219 21.800781 C 16.699219 21.402344 15.101563 22.199219 14.5 23.699219 C 13.898438 25.199219 14.601563 26.898438 16 27.597656 L 27.402344 34 C 29.101563 34.898438 31 35.199219 32.902344 34.902344 C 33.101563 34.902344 40.902344 33.097656 40.902344 33.097656 L 38.800781 18.902344 L 28.800781 12.699219 C 28.699219 12.597656 28.601563 12.597656 28.5 12.597656 Z M 45.300781 17.402344 L 40.699219 18.097656 L 43.402344 35.699219 L 48 35 Z M 6.898438 32.097656 C 5.800781 35.199219 5.800781 37.199219 5.800781 38 L 5.101563 39 C 4.898438 39.300781 5 39.699219 5.300781 39.902344 C 5.5 40 5.601563 40 5.800781 40 C 6 39.898438 6.101563 39.800781 6.300781 39.699219 L 6.898438 38.699219 C 7.601563 38.398438 9.398438 37.5 11.699219 35.097656 Z"/></svg>